<?xml version="1.0" encoding="UTF-8" standalone="no"?>
<!-- Created with Inkscape (http://www.inkscape.org/) -->

<svg
   xmlns:dc="http://purl.org/dc/elements/1.1/"
   xmlns:cc="http://creativecommons.org/ns#"
   xmlns:rdf="http://www.w3.org/1999/02/22-rdf-syntax-ns#"
   xmlns:svg="http://www.w3.org/2000/svg"
   xmlns="http://www.w3.org/2000/svg"
   xmlns:sodipodi="http://sodipodi.sourceforge.net/DTD/sodipodi-0.dtd"
   xmlns:inkscape="http://www.inkscape.org/namespaces/inkscape"
   width="282.22223mm"
   height="169.33333mm"
   viewBox="0 0 1000 599.99998"
   id="svg2"
   version="1.1"
   inkscape:version="0.91 r13725"
   sodipodi:docname="Flag_of_the_Republic_of_Korea_Air_Force.svg">
  <defs
     id="defs4" />
  <sodipodi:namedview
     id="base"
     pagecolor="#ffffff"
     bordercolor="#666666"
     borderopacity="1.0"
     inkscape:pageopacity="0.0"
     inkscape:pageshadow="2"
     inkscape:zoom="0.75833336"
     inkscape:cx="270.54947"
     inkscape:cy="299.99999"
     inkscape:document-units="px"
     inkscape:current-layer="layer1"
     showgrid="false"
     fit-margin-top="0"
     fit-margin-left="0"
     fit-margin-right="0"
     fit-margin-bottom="0"
     inkscape:window-width="1366"
     inkscape:window-height="656"
     inkscape:window-x="0"
     inkscape:window-y="1"
     inkscape:window-maximized="1" />
  <metadata
     id="metadata7">
    <rdf:RDF>
      <cc:Work
         rdf:about="">
        <dc:format>image/svg+xml</dc:format>
        <dc:type
           rdf:resource="http://purl.org/dc/dcmitype/StillImage" />
        <dc:title />
      </cc:Work>
    </rdf:RDF>
  </metadata>
  <g
     inkscape:label="Layer 1"
     inkscape:groupmode="layer"
     id="layer1"
     transform="translate(131.78569,-280.57651)">
    <rect
       style="opacity:1;fill:#3399ff;fill-opacity:1;stroke:none;stroke-width:1;stroke-miterlimit:4;stroke-dasharray:none;stroke-opacity:1"
       id="rect5164"
       width="1000"
       height="600"
       x="-131.78568"
       y="280.57651" />
    <g
       id="g4928">
      <path
         style="fill:#cba22a;fill-opacity:1"
         d="M 498.16016 150.04297 C 495.84196 150.06842 493.64675 150.28647 491.96484 150.71484 C 482.87669 153.02952 473.18465 160.05727 466.16211 169.42383 C 464.58428 171.52831 463.16905 173.41106 463.01562 173.60742 C 462.86222 173.80378 460.76332 174.53545 458.35156 175.23438 C 447.91285 178.2594 440.53468 183.16472 434.63672 191.00195 C 431.01008 195.82104 427.77092 203.2333 426.2793 210.125 C 426.11562 210.88125 425.80276 211.5 425.58594 211.5 C 425.36912 211.5 424.49729 210.51483 423.64844 209.31055 C 419.43315 203.33027 409.70903 199.9233 396.81055 199.9082 C 393.4767 199.90432 389.175 200.14479 387.25 200.44141 C 379.99257 201.55969 352.37198 200.62022 343.25 198.94531 C 331.58531 196.80353 317.07963 192.63655 306.0918 188.26953 C 303.53016 187.25144 301.09424 186.54915 300.67773 186.70898 C 299.61835 187.1155 300.14084 189.41197 302.2793 193.75 C 303.22824 195.675 304.00295 197.39467 304.00195 197.57031 C 303.99408 198.69154 285.39886 198.97639 275.5 198.00781 C 255.96833 196.09667 233.58524 191.20326 210.07031 183.70312 C 205.29638 182.18048 201.04633 181.06684 200.625 181.22852 C 199.98334 181.47474 199.91341 182.18812 200.19922 185.61523 C 200.38689 187.86556 200.89866 191.17893 201.33594 192.97852 C 203.06055 200.07614 207.95365 208.29422 212.97852 212.53125 C 215.22361 214.42434 215.38826 214.73807 216.13672 218.53711 C 217.02304 223.03598 219.12319 227.90148 221.27734 230.44922 C 222.06791 231.38423 223.89657 232.90487 225.33984 233.82812 C 227.54709 235.24009 228.0463 235.84458 228.48047 237.62891 C 229.36791 241.27604 232.54057 246.98799 235.39062 250.06641 C 236.89558 251.69194 240.01199 254.27463 242.31445 255.80664 C 244.61691 257.33864 246.5 258.8869 246.5 259.24609 C 246.5 259.60528 247.50854 261.91457 248.74219 264.37891 C 252.70181 272.28864 260.21334 278.15418 269.17773 280.33594 C 272.42937 281.12733 272.73394 281.32809 275.07227 284.24609 C 281.30301 292.0214 289.73455 295.57978 302.00781 295.61328 C 310.42939 295.63624 319.99313 293.82003 329.06641 290.47461 L 333.20117 288.95117 L 335.47656 290.18164 C 338.68425 291.91714 342.48062 292.90981 348.12305 293.49023 L 352.99805 293.99219 L 355.42578 296.47266 L 357.85547 298.95312 L 357.38086 301.85156 C 357.12 303.44545 357.02635 306.6625 357.17188 309 C 357.76981 318.60493 361.93016 326.53776 369.5 332.50781 C 371.2875 333.91755 373.15578 335.40151 373.65234 335.80469 C 374.38073 336.39612 374.49253 336.96014 374.22852 338.7207 C 374.04854 339.92088 374.16186 343.343 374.48047 346.32617 C 375.52584 356.11406 379.1355 364.31005 385.36719 371.04102 C 388.31334 374.22321 394.73988 378.78135 398.63086 380.44922 C 401.25379 381.57353 401.32139 381.77743 400.25586 385.29492 C 396.1869 398.72733 400.51512 412.06567 410.94922 418.25 L 413.48047 419.75 L 413.49023 424.76953 C 413.51193 435.75147 417.11563 441.99366 426.00586 446.44336 C 431.09753 448.99182 434.57148 449.70075 440.25 449.34961 C 445.33964 449.03489 450.16801 447.68136 455.1582 445.16992 L 458.56641 443.45508 L 464.1582 446.20898 C 467.41033 447.81108 471.21456 449.2685 473.25 449.69141 C 481.99289 451.50797 489.04517 450.02623 495.85352 444.94336 C 497.28547 443.87432 498.54922 443 498.66211 443 C 498.77499 443 500.36792 444.00504 502.20117 445.23438 C 506.65362 448.22009 510.92592 449.5 516.44727 449.5 C 521.60612 449.5 525.36156 448.61076 530.66211 446.13477 C 534.30171 444.43463 534.68381 444.35394 536.16211 444.97461 C 541.77756 447.33228 546.4314 448.59162 550.43555 448.83594 C 560.5473 449.45292 569.10596 445.46645 574.22266 437.75781 C 577.04626 433.50384 578.05139 430.07225 578.36719 423.5957 L 578.64258 417.93945 L 581.39258 416.17969 C 582.90573 415.21176 585.38303 413.2577 586.89648 411.83594 C 593.85848 405.29566 596.59807 396.8498 595.35938 385.75 L 594.96875 382.25 L 600.85938 379.38477 C 610.37012 374.75937 616.51253 368.8106 620.76953 360.10156 C 623.43413 354.65027 624.55709 349.75715 624.86914 342.25 L 625.14062 335.75 L 628.29102 332.3457 C 632.59327 327.697 634.9098 324.06648 636.96875 318.75 C 638.65775 314.38871 638.71522 314.02132 638.79492 306.80664 L 638.87695 299.36133 L 642.50391 297.68164 C 644.49851 296.75777 646.9013 295.18484 647.84375 294.18555 C 649.49635 292.43325 649.69455 292.36306 653.4043 292.24414 C 657.79505 292.10338 660.53761 291.13899 662.81641 288.93359 L 664.38086 287.41992 L 666.38477 288.44141 C 670.52127 290.55168 678.87519 293.61444 684.46484 295.07031 C 691.87889 297.00135 699.97185 297.47665 705.5 296.30664 C 713.06175 294.70624 720.07496 289.89122 723.03906 284.26367 C 723.85701 282.7108 724.65615 281.87567 725.5 281.69336 C 737.6183 279.07525 746.02842 273.07047 750.47852 263.85938 C 752.31467 260.05881 752.87988 259.32718 754.67578 258.41406 C 763.36933 253.99383 768.96064 247.38891 769.96289 240.35547 C 770.30464 237.95725 770.64762 237.43263 774.29492 233.75 C 780.60542 227.37828 784 221.3539 784 216.52539 C 784 214.66474 784.3367 214.18981 788.875 209.63867 C 796.08615 202.4071 799.13803 196.44027 799.83398 188.20703 C 800.18658 184.03604 799.80975 182 798.68555 182 C 798.24795 182 793.80871 183.21165 788.82031 184.69336 C 765.80886 191.52849 743.31915 196.35187 723.25 198.75391 C 715.9694 199.62531 697.38643 200.33105 695.32812 199.81445 L 693.99023 199.47852 L 694.93555 197.61523 C 696.193 195.13454 697.75481 190.08876 697.38086 189.71484 C 697.21706 189.55101 695.0335 190.23637 692.5293 191.23828 C 680.19475 196.17326 665.98065 198.80992 645 200.05469 C 634.48345 200.67863 612.15878 200.38567 601.51758 199.48438 C 594.01998 198.84933 589.65886 199.37936 585.16016 201.47461 C 581.77436 203.05154 578.1029 206.15616 576.43945 208.84766 C 575.81665 209.85538 575.18738 210.38859 574.92773 210.12891 C 574.68313 209.8843 573.9566 207.78606 573.3125 205.4668 C 568.202 187.06379 556.4036 175.82153 539.6582 173.40039 L 535.44141 172.79102 L 531.03906 167.74023 C 524.13181 159.81781 516.1355 153.90662 509 151.44727 C 506.23338 150.4937 502.02382 150.00055 498.16016 150.04297 z M 500.50781 175.89648 C 504.60819 175.89648 505.33784 176.04967 508.37109 177.54297 C 512.30489 179.47967 514.82345 182.182 516.25195 186 C 517.19835 188.5295 517.62636 192.64648 516.94336 192.64648 C 516.77171 192.64648 514.87055 191.7655 512.7168 190.6875 C 507.81575 188.2344 504.23346 187.47679 498.78125 187.74219 C 494.15985 187.96709 490.87439 189.14073 486.55664 192.11133 C 485.32964 192.95553 484.24232 193.64648 484.14062 193.64648 C 483.42369 193.64648 482.75586 192.14254 482.75586 190.52734 C 482.75586 186.26124 487.44771 180.09907 492.64258 177.54297 C 495.67776 176.04947 496.40769 175.89648 500.50781 175.89648 z M 532.89062 192.17383 C 535.69058 192.10131 538.77719 192.38086 540.54297 192.97461 C 550.19872 196.22131 557.08488 206.59572 555.29688 215.19922 C 554.98842 216.68322 554.20564 219.02148 553.55664 220.39648 C 552.34509 222.96318 543.58921 234.18197 537.56641 240.88477 C 532.61601 246.39417 532.71651 246.37726 529.94336 242.03516 C 528.66491 240.03356 526.94911 237.62795 526.13086 236.68945 L 524.64453 234.98438 L 524.99219 223.18945 C 525.39374 209.60615 525.06755 206.65245 522.5 200.56445 C 521.5404 198.28915 520.75586 196.28247 520.75586 196.10547 C 520.75586 195.67767 525.98511 193.37526 528.50586 192.69336 C 529.63333 192.38833 531.21065 192.21734 532.89062 192.17383 z M 468.9082 192.83398 C 471.74745 192.81954 474.65282 193.26742 477.41797 194.18945 C 481.71246 195.62145 482.17307 196.15722 480.78711 198.10352 C 479.84589 199.42542 479.3737 199.64648 477.49609 199.64648 C 467.58936 199.64648 463.27161 204.95158 464.98242 215.02148 C 465.39854 217.47088 466.09001 217.67461 467.79492 215.84961 C 469.58792 213.93041 471.41739 213.14844 474.10547 213.14844 C 477.123 213.15084 479.56856 214.57263 480.53711 216.89062 C 482.65127 221.95053 479.73644 228.06718 470.4082 238.14258 C 468.16833 240.56188 466.79883 241.64648 465.99023 241.64648 C 463.83827 241.64648 455.56389 231.57498 452.22852 224.89648 C 449.54525 219.52378 448.44893 214.11266 449.16602 209.78516 C 450.21455 203.45746 454.0909 197.52611 458.72461 195.16211 C 461.71581 193.6361 465.25775 192.85256 468.9082 192.83398 z M 384.50977 307.20703 C 384.54634 307.20211 384.58587 307.21047 384.63086 307.23047 C 384.83711 307.32207 386.69336 308.21996 388.75586 309.22656 C 393.38748 311.48706 397.22162 312.29541 402.25 312.07031 L 406.12109 311.89648 L 408.47656 314.06641 C 411.63422 316.97551 414.69515 318.25617 419.18555 318.54688 C 422.79949 318.78077 422.87739 318.81422 423.56055 320.44922 C 423.94311 321.36482 424.25565 323.52826 424.25586 325.25586 C 424.25647 330.12756 427.17384 335.51828 433.25781 341.89648 C 437.1985 346.02778 437.22177 346.21533 434.21875 349.39062 C 430.99105 352.80344 427.63314 354.97842 423.71094 356.19922 C 418.3163 357.87822 410.70701 357.24496 406.73242 354.78516 C 400.73886 351.07596 398.91586 345.58914 398.47852 329.93164 L 398.25586 321.96875 L 394.31445 320.11523 C 389.89822 318.03943 386.65864 315.13916 385.22266 311.97656 C 384.34394 310.04128 383.96116 307.28085 384.50977 307.20703 z M 615.29492 308.64648 C 616.07477 308.64648 615.80794 311.47171 614.76562 314.25391 C 613.40602 317.88291 610.03576 321.54977 605.22656 324.63477 C 602.69891 326.25617 601.27594 327.47777 601.43359 327.88867 C 602.27249 330.07477 602.85022 335.18093 602.63672 338.51953 C 602.06157 347.51413 596.84621 354.56085 589.00586 356.93945 C 585.93761 357.87035 578.85274 358.24925 575.58594 357.65625 C 571.26294 356.87155 566.15565 355.10603 561.5332 352.79883 C 556.87335 350.47293 553.75586 348.41662 553.75586 347.66992 C 553.75586 347.43622 555.89306 346.20665 558.50586 344.93555 C 564.21746 342.15705 567.92124 338.71564 570.21484 334.05664 C 573.08214 328.23234 572.69641 322.39407 569.38086 321.41797 C 568.48711 321.15487 567.75586 320.74938 567.75586 320.51758 C 567.75586 319.95648 569.21957 317.14648 569.51172 317.14648 C 569.63797 317.14648 571.68224 317.70898 574.05469 318.39648 C 582.57039 320.86428 590.39427 319.82238 594.69727 315.64648 C 596.61737 313.78318 596.83159 313.70362 599.15234 313.97852 C 602.25989 314.34652 606.31322 313.21006 611.16992 310.60938 C 613.18477 309.53036 615.04102 308.64648 615.29492 308.64648 z M 558.71484 374.14648 C 559.43454 374.14648 563.8279 377.78551 565.9375 380.12891 C 571.58875 386.40661 571.14384 393.76289 564.74414 399.86719 C 563.14144 401.39589 561.48646 402.64648 561.06641 402.64648 C 560.63606 402.64648 559.84375 401.60988 559.25195 400.27148 C 557.96925 397.37078 556.0527 395.29136 554.31055 394.91016 C 553.59295 394.75316 551.58139 394.81979 549.83984 395.05859 C 547.29729 395.40709 546.52981 395.34827 545.94141 394.75977 C 545.29761 394.11607 545.59863 393.62181 548.42383 390.69531 C 550.98498 388.04251 552.31392 386.01876 554.95117 380.75586 C 556.77257 377.12106 558.46649 374.14648 558.71484 374.14648 z M 440.04688 375.14648 C 440.3754 375.14648 441.4714 376.89028 442.48047 379.02148 C 443.48954 381.15278 445.18157 384.24648 446.24219 385.89648 C 448.40665 389.26378 449.68592 392.91764 448.95508 393.64844 C 448.66245 393.94104 447.56437 393.84121 446.04102 393.38281 C 438.31296 391.05701 433.39732 395.18764 435.84375 401.95312 C 436.30912 403.24003 436.29696 403.74428 435.7832 404.36328 C 434.44247 405.97878 431.59538 405.07725 429.31641 402.31445 C 426.46802 398.86135 425.95911 394.13065 427.96875 389.81445 C 431.19154 382.89275 437.56939 375.14648 440.04688 375.14648 z M 509.97852 380.64648 C 510.75317 380.64648 520.25586 392.95363 520.25586 393.95703 C 520.25586 394.38703 519.69924 394.64648 518.77344 394.64648 C 516.84519 394.64648 514.00501 397.12543 513.22461 399.49023 C 512.89111 400.50133 512.75867 402.35052 512.92188 403.72852 C 513.27437 406.70492 515.43334 411.67032 517.02539 413.16602 L 518.19531 414.26367 L 519.84961 411.83398 C 520.76026 410.49768 522.24348 408.64144 523.14453 407.71094 C 524.58158 406.22664 525.00555 406.05705 526.5918 406.31445 C 527.58645 406.47585 528.95165 407.12235 529.62695 407.75195 C 531.41565 409.41975 533.38973 413.54424 533.04883 414.90234 C 532.70213 416.28364 527.81113 420.84335 525.30273 422.12305 C 523.03218 423.28145 519.48553 423.73901 517.48633 423.13281 C 513.53473 421.93461 509.59139 416.39769 508.30859 410.24609 C 507.62589 406.97199 507.60743 396.39359 508.26953 388.40039 C 508.82943 381.64109 509.04757 380.64648 509.97852 380.64648 z M 486.46484 381.14648 C 487.44982 381.14648 487.68137 382.76635 488.35156 394.28125 C 488.81987 402.32735 488.82377 405.58474 488.36328 408.74414 C 487.2769 416.19784 483.45683 422.18002 478.91406 423.54102 C 476.411 424.29092 475.49312 424.27743 473.19727 423.45703 C 468.64458 421.83003 462.9178 416.52437 463.53906 414.50977 C 464.5504 411.23037 467.07165 407.9093 469.16602 407.0957 C 471.26616 406.2799 472.64709 407.11977 475.55273 410.98047 C 478.31349 414.64867 478.37574 414.69423 479.37891 413.80273 C 480.71356 412.61673 482.58722 408.56588 483.32617 405.27148 C 484.38861 400.53498 482.01889 395.94088 478.19922 395.33008 C 477.11821 395.15718 476.12667 394.84216 475.99609 394.63086 C 475.6455 394.06366 485.67389 381.14648 486.46484 381.14648 z M 450.91016 404.9707 C 455.75048 404.9007 457.88388 407.54918 457.89648 413.64648 C 457.90869 419.55898 455.41806 422.52692 449.53906 423.60352 C 446.06314 424.24002 444.62148 424.23321 442.31641 423.57031 C 438.10062 422.35781 436.73839 420.25373 436.39844 414.42773 C 436.21579 411.29763 436.33563 410.17288 436.93164 409.39648 C 437.69299 408.40478 437.71871 408.40778 440.17578 409.77148 C 441.53836 410.52778 442.89767 411.14648 443.19531 411.14648 C 443.49294 411.14648 444.16844 410.30278 444.69727 409.27148 C 446.3469 406.05458 447.84996 405.0147 450.91016 404.9707 z M 545.96484 406.14648 C 547.67129 406.14648 550.71108 408.91688 551.86328 411.52148 C 552.38028 412.69028 553.0611 413.64648 553.37695 413.64648 C 553.69275 413.64648 554.56932 413.05523 555.32422 412.33203 C 557.05167 410.67703 558.03037 411.02697 558.79297 413.57227 C 560.03972 417.73347 557.76039 421.87047 553.40234 423.35547 C 548.08789 425.16627 542.96814 423.64535 539.67969 419.28125 C 536.43874 414.98015 536.44859 415.01328 537.77734 412.86328 C 540.45239 408.53498 543.36369 406.14648 545.96484 406.14648 z "
         transform="translate(-131.78569,280.57651)"
         id="path5161" />
      <path
         style="fill:#dddddd;fill-opacity:1"
         d="m 400.98456,694.20642 c -0.69865,-0.75344 -1.27025,-1.53365 -1.27025,-1.73381 0,-0.80355 -5.5124,-4.4598 -7.0767,-4.6938 -2.19595,-0.3285 -4.5045,1.11687 -6.0188,3.76837 -0.635,1.11179 -1.4196,2.02316 -1.7436,2.02528 -0.97145,0.006 -2.81075,-5.50579 -2.86285,-8.57967 -0.04,-2.35264 0.15855,-3.05365 1.1694,-4.13062 2.1274,-2.2666 4.59565,-2.58466 9.8231,-1.2658 l 4.5405,1.14557 2.8479,-1.18039 2.8479,-1.18039 2.7685,1.3578 2.7685,1.3578 3.27075,-1.01022 c 3.83905,-1.18577 7.03175,-1.28842 9.39255,-0.302 4.22925,1.76709 4.80655,7.33427 1.2672,12.22019 l -1.50855,2.08253 -2.8679,-2.89984 c -5.22395,-5.28214 -8.0318,-5.07488 -12.9959,0.95929 -1.5518,1.88628 -2.87995,3.4296 -2.9515,3.4296 -0.0715,0 -0.70165,-0.61645 -1.40025,-1.36989 z m -57.16503,-2.38201 c -2.32592,-3.29981 -4.2678,-4.36465 -7.42396,-4.07098 -3.32817,0.30968 -5.50485,1.46673 -6.75943,3.59308 l -1.00784,1.70815 -2.33989,-2.40227 c -2.44169,-2.50679 -5.85586,-4.08607 -8.78817,-4.0651 -2.2713,0.0163 -5.43613,1.63466 -6.93048,3.54409 l -1.31502,1.68028 -1.81403,-1.74267 c -6.03841,-5.8009 -4.37737,-14.45941 2.55797,-13.33396 0.97233,0.15779 3.31621,1.00057 5.20863,1.87284 l 3.44078,1.58595 3.48573,-1.05875 c 4.50024,-1.36691 4.79117,-1.35033 9.01078,0.51343 l 3.55948,1.57218 3.97224,-0.79671 c 9.13246,-1.8317 12.92788,2.98266 8.78955,11.14925 -0.69762,1.3767 -1.44631,2.50309 -1.66374,2.50309 -0.21742,0 -1.1096,-1.01335 -1.9826,-2.2519 z m -14.84466,-14.73646 c -1.00326,-1.10859 -1.31756,-4.55 -0.4436,-4.8571 0.31183,-0.10957 0.95978,0.1936 1.43988,0.6737 0.48011,0.48011 1.45835,0.8839 2.17386,0.89732 1.60562,0.0301 1.96999,1.3384 0.84917,3.04899 -0.97754,1.49192 -2.7871,1.59866 -4.01931,0.23709 z m 68.93334,-0.27232 c -1.6792,-1.67919 -1.47,-3.48935 0.4032,-3.48935 0.7409,0 1.62965,-0.28125 1.975,-0.625 1.11325,-1.10811 2.4279,-0.75624 2.4279,0.64983 0,2.24519 -1.73915,4.72517 -3.3136,4.72517 -0.12755,0 -0.79915,-0.56729 -1.4925,-1.26065 z m -62.41555,-1.3506 c -0.89067,-1.27161 -1.0832,-6.64133 -0.25645,-7.15228 0.72229,-0.44641 1.9781,0.69332 1.9781,1.79524 0,1.28717 0.71997,1.57444 2.22609,0.88821 2.63621,-1.20115 3.00836,1.89108 0.5263,4.37314 -1.51758,1.51758 -3.44917,1.55889 -4.47404,0.0957 z m 55.33005,-0.1691 c -1.42895,-1.00087 -2.68835,-3.42953 -2.30135,-4.43797 0.3501,-0.91245 1.74485,-1.02977 2.55935,-0.21529 0.879,0.87902 2.0444,0.14094 2.22255,-1.40758 0.0943,-0.82003 0.50465,-1.46536 0.9902,-1.55737 1.06535,-0.20186 1.6303,2.17906 1.16735,4.91933 -0.55465,3.28287 -2.3297,4.31576 -4.6381,2.69888 z m -72.80617,-1.34465 c -1.03898,-1.62154 -1.90723,-5.2565 -1.5354,-6.42802 0.48299,-1.52176 1.86423,-0.93288 2.88206,1.22874 0.64458,1.36895 1.12456,1.82634 1.68915,1.60968 0.97525,-0.37424 2.16196,0.54876 2.16196,1.68154 0,1.27919 -1.88391,3.03306 -3.25795,3.03306 -0.71723,0 -1.5157,-0.46308 -1.93982,-1.125 z m 90.48782,-0.43282 c -1.68365,-1.32438 -1.71105,-4.19218 -0.04,-4.19218 1.4156,0 2.25,-0.65338 2.25,-1.76191 0,-1.03524 1.7188,-2.2209 2.51035,-1.73171 1.35305,0.83626 -0.24095,7.29665 -2.0376,8.2582 -1.1897,0.63671 -1.12915,0.64963 -2.6827,-0.5724 z m -82.92819,-2.56718 c -1.12665,-0.84913 -2.36186,-3.98108 -2.36186,-5.98866 0,-1.09562 -0.32909,-1.85132 -0.98444,-2.26059 -1.21301,-0.75754 -2.42429,-4.86161 -2.6196,-8.87575 -0.12944,-2.66049 -0.0389,-3 0.79954,-3 1.12872,0 1.6475,0.85397 2.05026,3.375 0.30822,1.92927 1.51379,2.58339 2.07342,1.125 0.37917,-0.98808 1.4079,-0.95149 2.4464,0.087 1.13467,1.13467 0.67218,3.74838 -1.01888,5.75809 -0.90006,1.06966 -1.12945,1.66834 -0.73311,1.9133 0.31726,0.19608 0.84664,0.89315 1.1764,1.54905 0.44627,0.88765 1.01337,1.19255 2.21807,1.19255 2.72396,0 3.45722,2.43017 1.36466,4.52272 -1.33952,1.33953 -3.11161,1.58149 -4.41086,0.60229 z m 74.46114,-1.60113 c -2.3248,-2.15458 -1.4904,-4.8475 1.43495,-4.63105 1.13815,0.0842 1.59285,-0.18741 2.12255,-1.26782 0.874,-1.78286 2.48705,-1.8268 2.92555,-0.0797 0.1788,0.71242 0.0577,2.18781 -0.26915,3.27866 -1.1597,3.87079 -3.74055,4.99215 -6.2139,2.69991 z m -59.31068,-0.62177 c -0.76846,-0.97694 -1.01925,-1.9046 -0.91129,-3.37069 0.17185,-2.33347 1.35258,-2.93088 2.94479,-1.48995 0.93304,0.84439 1.02647,0.82637 2.36516,-0.45617 1.67097,-1.60089 1.89636,-1.62954 2.59213,-0.32948 0.69602,1.30052 -0.52747,4.00507 -2.6012,5.75 -1.90166,1.60014 -3.07107,1.57251 -4.38959,-0.10371 z m 43.46128,-1.06085 c -1.93845,-1.93846 -2.81515,-3.97999 -2.2932,-5.34013 0.43945,-1.14519 1.81035,-0.89774 2.93295,0.5294 l 1.00725,1.28051 1.16425,-1.09377 c 1.22975,-1.15527 2.52775,-1.03745 3.03145,0.27516 0.7978,2.07911 -1.30195,6.25758 -3.1446,6.25758 -0.43415,0 -1.6483,-0.85894 -2.6981,-1.90875 z m -51.81972,-2.18861 c -1.37022,-0.66214 -2.65388,-3.78168 -2.65388,-6.44942 0,-1.64966 0.16039,-1.99565 0.86244,-1.86046 0.47435,0.0914 1.12329,0.68929 1.44209,1.32876 0.95841,1.92238 1.47682,2.23068 2.67375,1.5901 1.53589,-0.82198 2.52172,0.14446 2.52172,2.47211 0,2.97853 -2.10233,4.2448 -4.84612,2.91891 z m -19.08196,-0.56599 c -1.67576,-2.01917 -2.73898,-7.36537 -1.60425,-8.06667 0.2679,-0.16557 0.0642,-1.20121 -0.47691,-2.42442 -1.2983,-2.93503 -2.38307,-11.15325 -1.57839,-11.95793 0.96881,-0.96881 2.17139,0.69744 2.6392,3.65679 0.52077,3.29439 1.19413,4.06076 2.00475,2.28165 0.75919,-1.66623 1.79568,-1.69795 2.53399,-0.0775 0.77687,1.70503 -0.23087,4.96896 -2.1163,6.85439 l -1.43578,1.43578 0.98127,1.60565 c 0.78028,1.27675 1.31405,1.60565 2.60589,1.60565 1.46567,0 1.63988,0.15817 1.78067,1.61667 0.27754,2.87519 -3.68724,5.45437 -5.33414,3.46998 z m 80.46438,-0.65408 c -1.70685,-2.16991 -0.94995,-5.38255 0.98045,-4.16163 1.2997,0.82201 1.98175,0.51614 2.83395,-1.27094 1.12415,-2.35739 2.6493,-2.40034 2.6493,-0.0746 0,2.03221 -0.8708,4.76146 -1.8983,5.94961 -1.142,1.32055 -3.3467,1.10689 -4.5654,-0.44243 z m 20.11785,-0.18737 c -1.46655,-0.59072 -2.7696,-2.66699 -2.5677,-4.09129 0.1332,-0.93997 0.51635,-1.18299 2.06645,-1.31076 1.23375,-0.10169 2.00775,-0.45334 2.201,-1 0.16395,-0.46373 0.63975,-1.24072 1.05725,-1.72663 0.68765,-0.8002 0.6517,-0.98364 -0.3811,-1.94582 -2.32355,-2.16475 -3.2978,-6.66107 -1.72595,-7.96561 0.6832,-0.567 0.90875,-0.52425 1.5,0.28435 0.38275,0.52343 0.6959,1.15243 0.6959,1.39779 0,0.24536 0.28125,0.35269 0.625,0.23852 0.34375,-0.11417 0.7708,-1.38356 0.94895,-2.82088 0.31655,-2.5537 1.6286,-4.79772 2.49285,-4.26357 1.12115,0.69289 -0.24625,11.36579 -1.6775,13.09352 -0.3866,0.46667 -0.57225,1.72189 -0.46965,3.17565 0.20805,2.94811 -0.6391,5.68633 -2.06915,6.68798 -1.21285,0.84951 -1.20235,0.84854 -2.69635,0.24675 z m -9.151,-4.07022 c -1.7459,-2.41012 -1.9197,-4.393 -0.4979,-5.67972 0.9753,-0.88267 1.0407,-0.87642 2.19725,0.21011 1.3704,1.28743 1.6871,0.99674 2.20235,-2.0214 0.39005,-2.28478 1.67915,-3.54997 2.63905,-2.59008 0.8106,0.81058 -0.3455,8.56531 -1.5794,10.59432 -1.38915,2.28423 -3.0601,2.11137 -4.96135,-0.51323 z m -44.23005,-15.75163 c -7.20774,-1.54467 -10.14662,-3.04552 -14.6481,-7.48061 -2.26875,-2.2353 -4.125,-4.40763 -4.125,-4.8274 0,-0.83102 23.01261,-15.89436 24.82819,-16.25177 0.77377,-0.15233 4.06026,1.86302 11.64011,7.13794 5.8091,4.04261 10.8819,7.67014 11.273,8.06119 0.61465,0.61468 0.56555,0.96344 -0.36255,2.57415 -2.75235,4.77682 -5.25665,7.42178 -8.3351,8.80332 -6.105,2.73975 -13.40679,3.45413 -20.27055,1.98318 z m -23.74357,-16.51407 c -1.18277,-1.01241 -3.26951,-2.41897 -4.63721,-3.1257 -2.37079,-1.22506 -2.53968,-1.45197 -3.62223,-4.86637 -1.19312,-3.76316 -2.4411,-6.11569 -4.98509,-9.39724 l -1.535,-1.98004 -0.0357,-6.76996 c -0.0232,-4.41895 -0.32562,-8.033 -0.87065,-10.40699 l -0.83501,-3.63703 1.9516,-2.86297 c 1.07338,-1.57464 2.23654,-3.49051 2.58479,-4.25747 0.34826,-0.76698 0.90861,-1.32948 1.24524,-1.25 1.28328,0.30296 22.20968,21.39474 22.20968,22.3852 0,0.74751 -5.08014,19.60906 -7.30831,27.13429 -0.40476,1.36699 -1.82074,1.03845 -4.16217,-0.96573 z m 54.30102,0.96572 c -0.28605,-0.46948 -6.83055,-29.34074 -6.83055,-30.1332 0,-0.66319 17.4423,-21.27902 18.33645,-21.67265 0.3408,-0.15003 1.96345,1.94318 3.87335,4.99651 l 3.2869,5.25471 -0.56535,2.24503 c -0.35875,1.42473 -0.4753,5.02008 -0.31895,9.83982 l 0.2463,7.59478 -2.1799,2.42971 c -2.5606,2.85397 -4.9091,7.53076 -5.84,11.62958 -0.62965,2.77245 -0.7568,2.94292 -2.50265,3.35581 -1.02945,0.24346 -2.9167,1.40366 -4.2862,2.63494 -2.53875,2.28255 -2.83745,2.45187 -3.2194,1.82496 z m 50.94965,-30.63606 c -3.86365,-1.50846 -3.9476,-1.67604 -3.28025,-6.54433 0.3163,-2.30703 0.6723,-4.49857 0.7912,-4.87007 0.14245,-0.44507 1.2316,0.26464 3.19325,2.08078 1.6374,1.51592 4.59845,3.56737 6.5801,4.55875 1.98165,0.9914 3.90285,2.05134 4.26925,2.35545 0.9708,0.80569 0.8148,2.31579 -0.3009,2.91289 -1.64705,0.88148 -8.50085,0.58092 -11.25265,-0.49347 z m -160.5302,-0.31209 c -1.375,-0.41442 -2.91697,-1.15947 -3.4266,-1.65566 -0.89896,-0.87526 -0.8579,-0.94941 1.37678,-2.48691 3.27178,-2.25105 6.26164,-3.51058 8.3636,-3.5233 2.19151,-0.0132 2.81298,0.64371 3.02492,3.19782 0.1558,1.87751 0.0675,2.00026 -2.5887,3.59804 -3.11957,1.87654 -3.32333,1.9028 -6.75,0.87001 z m 179,-4.68643 c -6.1006,-1.22016 -14.10415,-5.42723 -18.51235,-9.731 -3.48255,-3.40004 -5.8697,-8.20082 -5.64315,-11.34886 l 0.1555,-2.16056 5.0828,-0.4398 c 2.79555,-0.24188 5.65885,-0.29522 6.36285,-0.11852 0.70405,0.1767 3.36675,2.3143 5.9172,4.75022 5.00025,4.77576 10.0069,8.55324 16.67365,12.58014 4.80335,2.90137 5.246,3.87524 2.3385,5.14481 -3.91805,1.71081 -8.1668,2.16524 -12.375,1.32357 z m -196.94912,-1.0236 c -3.25261,-0.49537 -7.06405,-2.12823 -7.47648,-3.20301 -0.36966,-0.96331 0.2974,-1.36274 5.4256,-3.24891 10.38774,-3.82061 16.29542,-7.10274 21.36075,-11.86736 5.46328,-5.13897 11.25047,-6.29982 13.14474,-2.6367 1.11942,2.16472 0.91913,2.9223 -1.01662,3.84539 -1.99202,0.94993 -3.93608,4.42002 -4.4977,8.02827 -0.2484,1.59587 -0.73064,2.43315 -1.91168,3.31907 -5.75794,4.31913 -17.20439,6.95487 -25.02861,5.76325 z m 215.69912,-6.76006 c -6.5354,-1.72928 -16.47265,-7.64819 -23.2062,-13.82234 -4.3758,-4.01224 -4.3235,-4.82846 0.50465,-7.87771 5.5599,-3.51139 4.37425,-3.92098 21.58625,7.45722 8.32405,5.50272 15.26795,10.35237 15.4309,10.77699 0.4065,1.05924 -0.68605,2.24514 -3.0656,3.32757 -2.44305,1.11131 -7.34495,1.17156 -11.25,0.13827 z m -232.25,-1.31125 c -0.825,-0.28917 -1.90366,-0.87775 -2.39701,-1.30794 -1.83243,-1.59783 -0.87884,-2.64017 6.64701,-7.26562 10.15633,-6.24215 20.15398,-11.77751 21.90401,-12.12752 3.06358,-0.61272 8.09599,3.3064 8.09599,6.30497 0,1.17536 -0.57894,1.94617 -2.93339,3.90556 -4.11,3.42038 -9.72182,6.82211 -13.76503,8.34396 -6.6587,2.50634 -13.9731,3.4009 -17.55158,2.14659 z m -15.54066,-6.93282 c -1.85561,-0.53879 -3.43366,-2.15669 -3.05813,-3.13532 0.14987,-0.39055 1.58341,-1.44987 3.18564,-2.35404 5.82562,-3.2875 13.56013,-8.26398 20.16315,-12.9732 3.7125,-2.64773 7.03437,-4.98358 7.38193,-5.19077 1.35749,-0.80925 10.11807,6.05914 10.11807,7.93267 0,0.7505 -3.14829,3.45211 -8.06908,6.92422 -4.23786,2.99024 -12.60695,6.97987 -17.42087,8.30471 -3.91156,1.0765 -9.51528,1.30051 -12.30071,0.49173 z m 108.79066,-0.58722 c -7.0125,-0.51084 -12.93678,-1.11478 -13.16505,-1.34208 -1.01572,-1.01135 0.65075,-4.05401 3.86948,-7.06497 4.11233,-3.84689 7.49987,-8.28439 9.40339,-12.31798 1.39261,-2.95097 1.58718,-3.13627 4.05251,-3.8596 7.32703,-2.14974 16.83967,-10.47313 16.83967,-14.7344 0,-1.19973 -1.93575,-2.79244 -4.37048,-3.59598 -2.46569,-0.81375 -9.59063,-0.28393 -13.37952,0.99491 -2.77988,0.93827 -3.04586,0.95171 -3.625,0.18315 -0.34375,-0.45618 -0.625,-1.00713 -0.625,-1.22433 0,-0.2172 -0.54594,-0.53193 -1.2132,-0.6994 -0.66726,-0.16747 -1.53306,-0.67801 -1.924,-1.13453 -1.62955,-1.9029 -1.44359,-2.5326 1.76795,-5.98653 1.71559,-1.84507 3.80917,-4.15667 4.6524,-5.13687 1.35925,-1.58006 5.72264,-4.95663 6.40521,-4.95663 0.142,0 1.04667,1.18791 2.01038,2.6398 0.96371,1.45189 2.32351,3.17652 3.02178,3.83251 1.0844,1.01873 1.449,1.11097 2.49958,0.63229 0.6765,-0.30823 2.08498,-1.67951 3.12995,-3.04728 1.04497,-1.36776 2.16005,-2.60003 2.47796,-2.73836 0.32205,-0.14013 1.69855,1.50897 3.10849,3.72412 1.39177,2.1866 2.88885,4.11316 3.32685,4.28123 0.99355,0.38126 3.23215,-1.7006 5.3093,-4.93752 0.8424,-1.31273 1.63575,-2.38679 1.7631,-2.38679 0.1273,0 1.5161,1.35 3.0862,3 1.6201,1.70258 3.2814,2.99766 3.84135,2.99459 0.60965,-0.004 1.65545,-0.94979 2.7367,-2.47659 0.9625,-1.35914 2.00135,-2.4817 2.30855,-2.49458 0.9941,-0.0417 4.9286,6.68875 6.47905,11.08311 0.6761,1.91629 0.67055,1.93361 -0.92875,2.9045 -0.88485,0.53721 -1.73695,1.48573 -1.8935,2.10785 -0.3332,1.32425 -0.42105,1.31864 -5.96535,-0.3815 -5.4499,-1.67121 -12.04745,-1.64265 -14.3392,0.062 -2.56685,1.90936 -2.0317,4.98662 1.65995,9.54508 2.0944,2.58614 8.4951,6.93331 11.32575,7.6921 3.792,1.01648 4.1322,1.29271 5.8239,4.72908 1.6455,3.34241 7.5124,9.89161 11.43845,12.76867 1.26845,0.92953 1.72195,1.69124 1.92685,3.23638 0.18205,1.37264 0.0509,2.19266 -0.40885,2.55677 -0.37225,0.29481 -6.2973,1.01321 -13.1668,1.59645 -9.9035,0.84084 -12.6153,0.93263 -13.0953,0.44324 -0.33295,-0.33946 -2.81245,-6.97937 -5.51005,-14.75536 -2.69759,-7.77598 -5.1297,-14.17923 -5.4047,-14.22944 -0.275,-0.0502 -2.9468,6.4674 -5.93732,14.48358 -2.99053,8.01617 -5.69053,14.65658 -6,14.75646 -0.30948,0.0999 -6.30018,-0.23636 -13.31268,-0.7472 z m 154.09865,0.37424 c -7.37935,-2.06647 -16.9899,-7.58937 -23.47365,-13.48962 -4.0345,-3.67141 -4.10595,-4.65938 -0.5,-6.91237 5.20735,-3.25354 7.02725,-3.56957 8.91285,-1.54775 1.8913,2.02797 10.0484,7.28346 20.0623,12.92584 7.74305,4.36284 9.14985,5.3333 9.14985,6.31193 0,2.83965 -8.13095,4.39787 -14.15135,2.71197 z m 67.90135,-3.10108 c -17.468,-1.37487 -43.09265,-13.74765 -66.2277,-31.97784 l -2.9777,-2.3464 1.9777,-1.53172 c 1.08775,-0.84244 3.64885,-3.16538 5.6914,-5.16208 2.04255,-1.9967 3.90605,-3.63036 4.14105,-3.63036 0.23505,0 2.1639,1.21335 4.2863,2.69633 9.70135,6.77856 40.47545,22.60836 50.0368,25.73829 2.1855,0.71542 19.68395,4.8391 26.94715,6.35035 1.6573,0.34484 1.38,1.36829 -0.9383,3.46274 -4.86225,4.39274 -14.45105,7.06858 -22.9367,6.40069 z m -400.47697,-1.91149 c -3.96352,-1.11714 -6.89449,-2.70716 -9.30767,-5.04933 -2.3719,-2.30209 -4.01928,-5.08569 -3.38291,-5.71617 0.22965,-0.22752 2.55505,-0.63245 5.16755,-0.89986 8.18989,-0.83825 22.9511,-5.12632 33.83664,-9.82939 9.11414,-3.93774 25.45186,-12.90662 36.53594,-20.05706 2.28924,-1.47681 4.36202,-2.6851 4.60619,-2.6851 0.69135,0 11.02123,12.34084 11.02123,13.16677 0,1.72105 -12.36356,11.95363 -20.51307,16.97744 -9.45958,5.83142 -22.90053,10.89761 -34.8488,13.1353 -8.79019,1.64624 -19.14892,2.07529 -23.1151,0.9574 z m 50.75588,-0.98297 c -2.35781,-0.83994 -4.47882,-2.34489 -4.66063,-3.30693 -0.0787,-0.41658 1.32944,-1.48527 3.5,-2.65623 8.66728,-4.67577 17.89114,-11.04685 26.70924,-18.44853 2.51764,-2.11324 4.72952,-3.84225 4.91528,-3.84225 0.59398,0 12.2572,8.16263 12.2572,8.57833 0,0.21982 -1.51875,1.66193 -3.375,3.20468 -15.2647,12.6867 -31.21983,19.36578 -39.34609,16.47093 z m 299.72109,-1.96299 c -8.95185,-1.87826 -21.8196,-9.10699 -28.45325,-15.9842 -1.4909,-1.54568 -1.6174,-1.86913 -1.015,-2.59498 0.84645,-1.01996 8.73625,-7.21177 9.1894,-7.21177 0.1801,0 2.39045,1.48131 4.91185,3.29181 2.5214,1.81049 7.8542,5.42649 11.8507,8.03554 3.99645,2.60905 9.7413,6.35898 12.7663,8.33319 3.025,1.9742 5.565,3.9431 5.6445,4.37532 0.0843,0.45855 -0.4363,1.05079 -1.25,1.42194 -2.0595,0.93941 -9.8486,1.12959 -13.6445,0.33315 z m -227.33902,-1.27938 c -1.63009,-0.38013 -4.46673,-2.39963 -6.63282,-4.72212 -1.67761,-1.79875 -1.24458,-2.12896 7.22184,-5.50694 6.74669,-2.69183 16.69841,-8.30127 17.13295,-9.65725 0.11012,-0.3436 -0.15354,-0.76048 -0.58589,-0.92639 -0.48886,-0.18759 -2.06434,0.64024 -4.16658,2.18932 -5.13284,3.78221 -11.8686,7.3926 -16.95423,9.0875 -6.35811,2.11899 -7.3395,2.03759 -11.75936,-0.97531 -7.09562,-4.83691 -8.29648,-6.50038 -4.69262,-6.50038 2.27414,0 9.27715,-1.33982 13.52573,-2.58775 7.15761,-2.1024 16.25,-6.64302 16.25,-8.11503 0,-1.68051 -1.90101,-1.20794 -8.70508,2.16397 -14.58652,7.22868 -22.79807,8.59515 -30.13905,5.01538 -2.81046,-1.37051 -5.65587,-3.88207 -5.65587,-4.99228 0,-0.24144 0.73125,-0.53928 1.625,-0.66188 12.59508,-1.72765 18.4169,-3.32127 25.875,-7.08281 5.51616,-2.78211 8.5,-4.97357 8.5,-6.24274 0,-1.41127 -0.61431,-1.26549 -4.40238,1.04476 -4.99154,3.04421 -14.84211,7.7048 -19.09762,9.03564 -3.2104,1.00399 -4.79324,1.17274 -11,1.17274 -6.52848,0 -7.45614,-0.11024 -9.32128,-1.10776 -2.43192,-1.30063 -5.30382,-4.4776 -6.90839,-7.64224 -2.35278,-4.64032 -2.92754,-4.28273 6.85578,-4.26533 7.76213,0.0138 8.96175,-0.10137 12.005,-1.15247 1.85961,-0.64229 4.55961,-1.97873 6,-2.96988 1.72792,-1.18899 3.5284,-1.94484 5.29228,-2.22172 4.92138,-0.77252 9.51177,-3.91412 10.61834,-7.26705 1.27746,-3.87076 -0.84834,-8.55399 -4.27296,-9.41352 -3.08311,-0.77381 -6.9492,1.72395 -7.99443,5.16497 -0.43079,1.41819 -2.10351,1.47396 -5.82331,0.19416 -7.47615,-2.57217 -14.18887,-7.18231 -22.05164,-15.14454 -3.21783,-3.25854 -6.19908,-5.92462 -6.625,-5.92462 -0.49551,0 -0.77439,0.45641 -0.77439,1.26735 0,1.671 7.21977,9.19677 13,13.55099 6.74831,5.08346 17.03174,9.90603 21.95565,10.29643 1.62058,0.12848 1.75774,0.008 2.75,-2.41704 1.49657,-3.65744 2.13749,-4.27523 4.25155,-4.09801 1.61778,0.13561 1.86525,0.35988 2.53497,2.29729 0.68971,1.99527 0.67204,2.27709 -0.25,3.9873 -1.86257,3.45468 -6.88425,5.16019 -12.18068,4.13692 -6.08216,-1.1751 -16.86298,-6.93483 -24.19618,-12.927 -9.63629,-7.8741 -20.64662,-22.2674 -15.99278,-20.90661 0.48261,0.14111 5.18347,0.52216 10.44637,0.84677 8.83441,0.54492 14.58457,0.48086 30.75945,-0.34262 10.47035,-0.53306 21.74201,2.01356 26.17214,5.91312 4.71263,4.14822 5.26816,7.85793 2.43534,16.26264 -2.08654,6.19056 -2.70945,12.45296 -1.71504,17.24221 1.69144,8.14629 8.9663,16.35794 18.90421,21.33851 1.71875,0.86137 3.125,1.78973 3.125,2.063 0,0.27327 -0.89743,0.85593 -1.99429,1.2948 -2.83356,1.13377 -7.06038,5.92825 -9.46919,10.7409 -1.12008,2.23787 -2.03652,4.50759 -2.03652,5.04382 0,1.88457 -1.00815,2.88392 -3.63698,3.60521 -3.58517,0.98368 -6.31655,1.25529 -8.20204,0.81559 z m -1.97612,-55.63657 c 1.08527,-4.04967 -0.32188,-10.81436 -3.26651,-15.70329 -2.9477,-4.89404 -7.35426,-6.35381 -22.41835,-7.42659 -13.05186,-0.92948 -14,-0.93155 -14,-0.0306 0,0.67541 0.88635,0.93101 7,2.01863 0.9625,0.17123 4.7875,0.52073 8.5,0.77667 7.73889,0.53352 10.90422,1.33335 14.32548,3.61981 3.54095,2.36646 5.3172,5.3519 6.65811,11.19064 1.17519,5.11715 1.75432,6.6797 2.47569,6.6797 0.23325,0 0.55976,-0.50625 0.72558,-1.125 z m 155.56514,55.05011 c -2.83855,-1.04593 -4.6294,-2.80394 -5.4872,-5.38657 -1.5543,-4.6796 -6.30975,-10.69324 -10.7628,-13.61037 -0.6875,-0.45037 -1.1375,-0.923 -1,-1.05028 0.1375,-0.12727 2.48,-1.31462 5.20555,-2.63853 12.84175,-6.23779 19.885,-14.778 21.2674,-25.78757 0.5481,-4.3652 -0.0948,-9.96379 -1.6615,-14.46889 -1.07175,-3.08185 -1.18165,-3.95827 -0.7945,-6.33693 1.3085,-8.0397 6.81885,-12.86727 16.57705,-14.52301 4.105,-0.69651 5.36605,-0.70867 10.656,-0.10275 3.85755,0.44185 12.8692,0.72604 25.23745,0.7959 12.2324,0.0691 19.2979,0.29 19.4035,0.6067 0.22825,0.68474 -2.07005,5.16302 -4.6585,9.07719 -2.6389,3.99047 -9.4534,10.70539 -13.45595,13.25939 -8.1811,5.22028 -18.0242,8.65766 -26.0534,9.09832 -4.39035,0.24096 -5.32665,0.14327 -7.3945,-0.77142 -1.954,-0.86435 -2.54835,-1.4559 -3.40225,-3.3863 -1.40125,-3.16785 -1.0113,-5.44189 1.299,-7.57499 2.2576,-2.08448 4.2713,-2.17148 5.78595,-0.25 1.07885,1.36855 1.13395,2.88771 0.21635,5.9621 -0.29155,0.97685 -0.091,1.12211 1.977,1.43223 6.23725,0.93534 15.4391,-1.76917 22.6063,-6.64417 3.1764,-2.16055 10.50715,-9.54802 11.6305,-11.7205 0.3803,-0.73546 0.545,-1.71877 0.36605,-2.18515 -0.25705,-0.66982 -1.45265,0.3037 -5.69145,4.63429 -2.95135,3.01523 -6.6697,6.32523 -8.26305,7.35556 -5.6773,3.67115 -12.89305,6.26518 -17.478,6.28325 -1.8579,0.007 -1.875,-0.011 -1.875,-2.00867 0,-2.72953 -1.07775,-5.11517 -2.8956,-6.40961 -4.59405,-3.27125 -10.6041,1.41813 -10.7024,8.3506 -0.0702,4.9514 2.64095,8.15305 7.50965,8.86832 1.61915,0.23787 3.08375,0.93352 4.7619,2.2618 5.24295,4.14984 12.14815,6.31712 21.82645,6.85051 6.02735,0.33217 6.2558,0.3855 6.41335,1.49689 0.12375,0.87289 -0.67525,1.97627 -3.29385,4.54854 -4.4031,4.32519 -7.7869,6.02534 -12.7374,6.39975 -8.39195,0.63468 -16.74805,-2.22477 -28.7727,-9.84598 -2.09815,-1.32983 -2.76575,-1.54589 -3.25,-1.05186 -0.9172,0.93578 1.3846,2.58532 8.3906,6.01294 9.1135,4.45869 17.1103,6.72686 22.80115,6.46719 3.01895,-0.13775 3.82215,0.64981 2.6129,2.56213 -1.4647,2.31627 -3.3964,4.08871 -5.91405,5.42647 -2.29405,1.21895 -2.98,1.32834 -8.32755,1.32793 -3.2051,-2.4e-4 -5.7412,0.13921 -5.6357,0.3099 0.1055,0.17068 0.85545,0.58523 1.6666,0.92122 1.9444,0.8054 2.2091,1.67795 0.98215,3.23776 -1.52875,1.94346 -4.83535,3.64612 -8.27415,4.26053 -7.91885,1.41487 -17.68155,-2.87751 -24.38145,-10.71981 -1.2965,-1.51754 -2.65325,-2.75916 -3.01505,-2.75916 -1.29635,0 -1.18135,1.46526 0.27255,3.47228 2.71005,3.74114 9.98105,8.36501 17.35295,11.03537 1.7272,0.62565 3.25015,1.31521 3.38435,1.53236 0.3573,0.57808 -2.6475,2.72816 -5.8822,4.20907 -3.25285,1.4892 -6.9885,1.96973 -9.1425,1.17603 z m 17.75,-21.1058 c 0,-0.0994 -1.63125,-1.43206 -3.625,-2.96151 -1.99375,-1.52946 -4.28585,-3.47314 -5.09355,-4.31931 -1.56195,-1.63637 -2.78145,-1.99902 -2.78145,-0.82715 0,1.01155 4.7195,4.88595 8.1954,6.72786 2.9609,1.56902 3.3046,1.71257 3.3046,1.38011 z m -0.48565,-30.84612 c 0.30225,-0.56475 0.6825,-3.84131 0.84505,-7.28123 0.2772,-5.86614 0.38835,-6.39456 1.79085,-8.51195 1.6938,-2.55714 5.56705,-5.66883 8.8808,-7.13467 2.8551,-1.26295 6.7057,-1.84969 16.96895,-2.58567 8.7016,-0.624 10.5,-0.99118 10.5,-2.1438 0,-1.19988 -1.21465,-1.30009 -9.61885,-0.79356 -11.91205,0.71794 -19.5207,2.14404 -23.87655,4.47521 -2.16145,1.15679 -5.1051,4.23405 -6.29345,6.57913 -1.1253,2.22068 -1.21115,2.93473 -1.21115,10.07339 0,4.22581 0.15,7.83329 0.33335,8.01662 0.5829,0.5829 1.1155,0.36318 1.681,-0.69347 z m 119.23565,44.79419 c -14.8888,-2.35869 -33.5294,-10.17261 -52.5,-22.00742 -8.15335,-5.08646 -14.75,-9.75407 -14.75,-10.4367 0,-0.33118 1.4701,-2.05815 3.2669,-3.83771 1.7968,-1.77955 3.8524,-4.0793 4.568,-5.11055 0.7156,-1.03125 1.67955,-1.875 2.14205,-1.875 0.46255,0 10.43,3.924 22.14995,8.72 11.71995,4.79601 22.7987,9.18015 24.61955,9.74254 7.83395,2.41966 22.33885,4.54999 37.75355,5.54485 11.2443,0.7257 11.87715,0.82882 12.5258,2.04081 1.11685,2.0869 -4.15865,8.62047 -10.01895,12.40816 -7.6793,4.96339 -18.12975,6.65299 -29.75685,4.81102 z m -435.61867,-2.02443 c -7.09153,-1.5407 -13.56272,-6.67962 -16.89067,-13.41327 -2.09241,-4.2337 -2.05942,-5.56666 0.12336,-4.98477 2.23481,0.59578 19.96339,0.4092 25.13598,-0.26453 6.32777,-0.82418 16.20253,-2.83475 21.75,-4.42845 5.45718,-1.56776 26.42671,-9.90517 37.75,-15.00927 4.5375,-2.04533 8.61428,-3.83269 9.05951,-3.97191 0.85266,-0.26662 10.93363,8.12134 10.9381,9.10114 0.005,1.1374 -18.19211,12.28653 -30.24761,18.53211 -18.37395,9.51898 -30.17183,13.40247 -44.54708,14.66348 -7.43407,0.65213 -9.17402,0.62224 -13.07159,-0.22454 z m 278.60142,-12.86568 c -2.2522,-1.22169 -4.73275,-3.52447 -4.73275,-4.39355 0,-1.25098 7.66595,-9.24136 12.1487,-12.66281 1.9807,-1.51179 5.6044,-4.00244 8.0526,-5.5348 3.65575,-2.28817 4.84565,-2.78611 6.65785,-2.78611 4.21065,0 5.1252,1.65816 3.15325,5.71714 -2.20575,4.54016 -7.72205,9.88031 -15.5124,15.01698 -6.71675,4.42878 -8.5531,5.30175 -9.76725,4.64315 z m -109.98275,-3.52265 c -10.14958,-5.4898 -16.32842,-12.5543 -16.44691,-18.80441 l -0.0531,-2.80021 1.60197,0.0712 c 6.34194,0.28194 15.58143,6.40097 22.04343,14.59868 2.62133,3.32542 2.68336,4.66619 0.319,6.89606 -2.25029,2.1223 -3.59924,2.12928 -7.4644,0.0386 z m 284,-3.63716 c -16.0498,-1.4873 -27.7265,-4.3613 -44.5,-10.95285 -6.78675,-2.66702 -24.9953,-11.37914 -26.3556,-12.61019 -2.73,-2.4706 1.29925,-6.16142 8.5808,-7.86009 l 3.00665,-0.70141 7.7556,2.69188 c 25.06645,8.70028 44.80335,11.92991 77.25645,12.64179 16.85045,0.36961 16.01475,0.0764 13.6989,4.80604 -3.29565,6.73052 -11.1056,10.99633 -22.4428,12.25827 -5.44965,0.6066 -7.93455,0.56663 -17,-0.27344 z m -464.3717,-0.23757 c -7.81662,-0.70833 -13.417,-3.21902 -19.19228,-8.60404 -3.73866,-3.48601 -6.18602,-6.95728 -6.18602,-8.77409 0,-1.14105 0.12129,-1.18795 2.375,-0.91835 1.30625,0.15627 9.4625,0.43428 18.125,0.6178 25.79957,0.5466 33.79961,-0.53073 54.22517,-7.30225 7.43866,-2.46608 15.88733,-5.40211 18.77483,-6.52452 2.8875,-1.12241 5.65647,-2.16789 6.15327,-2.3233 0.4968,-0.15541 3.5051,0.69147 6.68512,1.88195 5.70295,2.13497 5.79467,2.19442 6.72173,4.35716 0.51693,1.20596 0.93988,2.41444 0.93988,2.68552 0,0.63009 -9.98125,5.40018 -20.13749,9.62382 -26.94006,11.20346 -51.93368,16.78007 -68.48421,15.2803 z m 364.9521,-13.23016 c -5.4042,-1.11119 -14.6855,-3.7831 -15.6769,-4.51307 -1.01785,-0.74944 -1.29645,-0.58821 3.49015,-2.01982 2.8121,-0.84106 3.01705,-0.83518 7.27415,0.20885 5.1283,1.2577 10.3608,1.36684 15.3322,0.3198 4.30185,-0.90604 6.09355,-1.6166 6.45565,-2.5602 0.48975,-1.27629 -1.12535,-1.33258 -6.3888,-0.22267 -7.9343,1.6731 -16.1193,0.96196 -11.2107,-0.97403 0.9041,-0.35659 3.50305,-1.75427 5.77535,-3.10597 l 4.13155,-2.45761 3.46425,0.53749 c 1.90535,0.29563 5.3899,0.5375 7.7435,0.5375 2.97865,0 4.2792,0.18112 4.2792,0.59591 0,1.17328 -4.03645,7.3616 -6.2373,9.56244 -3.34565,3.34567 -6.1977,4.55975 -11.0127,4.68799 -2.2,0.0586 -5.5388,-0.20988 -7.4196,-0.59661 z m -260.16515,-0.64302 c -3.64026,-1.30385 -7.72709,-4.55977 -10.32463,-8.22548 -3.07648,-4.34161 -4.58436,-7.42158 -3.85431,-7.87277 0.31672,-0.19574 4.02873,-0.49074 8.24893,-0.65556 l 7.67308,-0.29965 5.42084,3.2687 c 6.59434,3.97631 11.88254,6.67138 16.0612,8.18541 1.72719,0.62581 3.26035,1.33198 3.40701,1.56928 0.33153,0.53644 -2.97827,1.97748 -7.84527,3.41574 -5.33896,1.57772 -15.19709,1.90008 -18.78686,0.61433 z m 135.63165,-2.88124 c -1.00631,-1.00631 -2.44407,-3.80311 -3.27414,-6.36901 -0.60404,-1.86722 -0.5801,-1.93153 1.721,-4.625 1.28346,-1.50231 2.62309,-2.73146 2.97689,-2.73146 0.35385,0 1.2554,0.8832 2.0035,1.96267 0.74805,1.07947 1.67865,2.08491 2.068,2.23431 1.90175,0.72978 -0.1201,6.19063 -3.40835,9.20566 -1.17115,1.07384 -1.3138,1.09591 -2.0869,0.32283 z m 13.0723,-0.26878 c -1.2514,-0.72867 -3.34275,-5.07925 -3.64605,-7.58478 -0.2335,-1.92875 -0.0761,-2.32674 1.7292,-4.37191 l 1.98615,-2.25 2.56835,2.5 c 1.41255,1.375 2.7635,2.85484 3.00205,3.28854 0.4823,0.87681 -1.15665,4.84923 -3.06645,7.43236 -1.2511,1.69221 -1.31685,1.7174 -2.57325,0.98579 z m -27.14264,-1.1723 c -1.21172,-1.84932 -2.72781,-6.1273 -2.71634,-7.66476 0.008,-1.06972 0.6603,-1.88397 2.979,-3.7185 l 2.96877,-2.34888 2.021,2.84886 c 1.11156,1.56688 2.02101,3.25158 2.02101,3.74379 0,2.10152 -4.43286,8.3551 -5.92251,8.3551 -0.30494,0 -0.91286,-0.54702 -1.35093,-1.21561 z m 247.27344,-0.3115 c -17.5799,-0.97631 -37.3723,-4.85418 -54.9602,-10.76818 -9.1036,-3.06112 -10.0419,-3.4676 -10.03515,-4.3473 0.005,-0.51896 9.7724,-7.21436 12.74535,-8.73583 0.70285,-0.3597 1.96575,-0.31435 4.25,0.1526 4.25015,0.86882 12.32235,2.03438 19.5,2.81563 7.62775,0.83025 37.6185,0.83491 46.75,0.007 7.72145,-0.69984 23.05595,-2.51503 24.27625,-2.87366 0.4269,-0.12546 1.1786,0.0661 1.6704,0.42574 0.85145,0.62258 0.83215,0.83872 -0.4032,4.51873 -1.93225,5.75606 -4.4175,10.34019 -7.33885,13.53659 -3.99165,4.36747 -4.69975,4.60361 -15.72365,5.2434 -10.2033,0.59216 -10.5118,0.59254 -20.73095,0.025 z m -482.75,-1.30125 c -6.74099,-0.80229 -13.16007,-1.8472 -15.36328,-2.50088 -8.105265,-2.40476 -13.675775,-7.94183 -15.367325,-15.27506 -0.74007,-3.20835 -0.65516,-5.3957 0.20945,-5.3957 0.40086,0 3.94461,0.55934 7.875,1.24296 17.916935,3.11638 35.403895,4.55058 49.896155,4.09224 12.92734,-0.40885 22.82097,-1.77361 39.04851,-5.38649 l 2.79851,-0.62306 3.95149,2.16442 c 5.88284,3.22231 7.70149,4.44876 7.70149,5.19368 0,1.35079 -14.2221,7.18453 -25.87361,10.61306 -7.61258,2.24005 -18.79418,4.47859 -27.12639,5.43068 -6.06621,0.69316 -23.33538,0.96956 -27.75,0.44415 z m 254.699,-9.22266 c -0.5781,-0.57806 -1.60705,-2.26556 -2.28665,-3.75 -0.6796,-1.48444 -1.41425,-2.69898 -1.63255,-2.69898 -0.2183,0 -1.01745,0.95625 -1.77592,2.125 -1.76729,2.72333 -3.77358,4.875 -4.54563,4.875 -0.85257,0 -3.69952,-3.357 -4.52751,-5.33864 -0.38179,-0.91375 -0.80743,-1.66136 -0.94586,-1.66136 -0.13844,0 -1.22185,1.0125 -2.40759,2.25 -1.18572,1.2375 -2.53821,2.25 -3.00551,2.25 -0.74198,0 -0.81032,-0.39595 -0.53936,-3.125 0.43856,-4.417 -0.17108,-5.65044 -3.55948,-7.20171 -3.62473,-1.65945 -7.76202,-2.02981 -10.72294,-0.95988 -1.2375,0.44717 -2.46966,0.86333 -2.73813,0.92481 -0.67763,0.15518 -0.91454,-1.87727 -0.52311,-4.4876 0.68326,-4.55627 5.13068,-7.34912 11.30186,-7.09726 l 3.06644,0.12515 3.57147,-3.53977 c 4.57384,-4.53323 6.94295,-5.35864 15.32147,-5.33802 6.55585,0.0161 9.6864,0.92428 13.66915,3.96534 4.37935,3.3439 6.81205,10.6554 6.81535,20.48394 0,6.0511 -0.27205,7.75 -1.2503,7.75 -0.6855,0 -4.7342,-4.33624 -4.7342,-5.07039 0,-0.23629 -0.3375,-0.42961 -0.75,-0.42961 -0.4125,0 -0.75,0.19011 -0.75,0.42248 0,0.23236 -0.8951,1.80736 -1.9891,3.5 -2.1808,3.37415 -3.27585,3.81254 -5.0619,2.0265 z m -6.11948,-16.69898 c 1.25523,-1.2375 2.65088,-2.25211 3.10138,-2.25469 1.53405,-0.009 6.0389,-2.98661 6.82875,-4.51394 0.42965,-0.83091 0.6608,-1.7056 0.5136,-1.94377 -0.1472,-0.23817 -2.01265,0.45595 -4.14545,1.54248 -4.81745,2.4542 -8.52448,2.97714 -11.91786,1.68119 -3.50884,-1.34003 -7.20994,-0.43082 -7.20994,1.7712 0,0.71288 0.45956,0.94334 2.12126,1.06378 1.80047,0.1305 2.22639,0.38059 2.8164,1.65375 1.13821,2.45611 2.09416,3.25 3.91345,3.25 1.33877,0 2.17697,-0.47405 3.97841,-2.25 z m 138.87593,14.67792 c -0.20715,-0.3352 0.6656,-1.52561 2.1079,-2.875 4.90745,-4.59141 8.18995,-9.47285 10.96275,-16.30292 l 1.62385,-4 3.42505,-0.39963 c 11.0949,-1.29454 20.59125,-3.19504 30.8592,-6.17587 3.26385,-0.9475 6.04575,-1.61121 6.18205,-1.47491 0.37095,0.37094 -1.6646,3.55791 -5.1717,8.09712 -10.1157,13.09273 -25.1365,21.44588 -41.69455,23.1866 -6.19375,0.65114 -7.8648,0.63998 -8.29455,-0.0554 z m -291.70545,-1.6408 c -10.42825,-2.31473 -20.0276,-7.89737 -28.58657,-16.62497 -5.55438,-5.66381 -13.16998,-16.07227 -12.35556,-16.88669 0.14521,-0.14521 2.78049,0.7475 5.85619,1.98381 7.41964,2.98238 17.19481,5.88369 26.08594,7.74241 8.27254,1.72941 7.40621,1.12515 13.33701,9.30254 1.97285,2.72018 5.39711,6.97078 7.60945,9.44578 2.21234,2.475 4.02944,4.64251 4.03799,4.81668 0.0526,1.07116 -11.43789,1.22962 -15.98445,0.22044 z m -92.75,-7.34139 c -14.49647,-1.08944 -28.875705,-3.92061 -34.37456,-6.76813 -4.8891,-2.53176 -10.19262,-7.85392 -12.36749,-12.41094 -1.743895,-3.65401 -3.26007,-10.69618 -2.474485,-11.49325 0.297025,-0.30137 4.007825,0.38549 10.093125,1.86822 34.1184,8.31321 60.90832,12.43575 81.85312,12.59588 l 11.72972,0.0897 4.38945,4.71141 c 2.4142,2.59127 4.39208,4.87224 4.39529,5.06882 0.0111,0.68376 -1.7788,1.29748 -7.49417,2.56952 -16.60285,3.69521 -37.72707,5.12324 -55.75,3.7688 z m 452.25,-0.78455 c -8.5192,-0.47655 -18.99835,-2.17294 -20.4011,-3.30258 -0.509,-0.40995 -0.11925,-1.07893 1.7866,-3.06647 1.3407,-1.39817 3.3984,-3.72338 4.57265,-5.16713 l 2.13495,-2.625 7.85975,0 c 21.89955,0 54.73325,-5.63231 89.4403,-15.34264 4.906,-1.37259 5.8262,-0.2395 4.3824,5.39623 -2.4123,9.41595 -8.46525,16.08795 -17.48125,19.26898 -3.6676,1.29401 -27.8002,3.75587 -45.7943,4.67165 -9.0657,0.46139 -20.00455,0.53031 -26.5,0.16696 z"
         id="path4936"
         inkscape:connector-curvature="0"
         sodipodi:nodetypes="csscccsscccccssscssscssscscscssscsscssssssssssssssssscsssssccccssssssssscsscsccsssssscssssssssccccssssssssssscccssssccssscscssscscssscccssssccscscccscsscccsssscssscssssssccsscsssccscsscsscccsssccscsssscscssscssssscsssssscscsssssssssssssssssssssssssssssssssssssccssssssssssssssssssscssscscsccscsscscsssscscccssssssssscsssssssssssssssssssscsssssssscsssscssssscssssssssssssssssssssssssssssssssssssscsssssssssssscssssssssccssscssssssscsssssscsssscsscsssssscssscssssscssssssscsssssssssssssssssscsssssssssscsscsssssscssccsssssssscsccssccsssscssssssssssssssssssssssscssccsssssscssscsscsccssssccssccscccscscscsssscscssscscsssccssssssscssssscsssssssssssssscssscssssscsccsssssssscsscssssscssssssscscssssscscsccscsscssssss" />
      <path
         style="fill:#fbc719;fill-opacity:1"
         d="m 341.46431,725.16437 c -4.09107,-1.52552 -6.42888,-2.88475 -10.42899,-6.06347 l -3.79053,-3.01221 -3.21163,2.2451 c -8.77799,6.13625 -17.71025,8.13364 -25.54778,5.71287 -7.78809,-2.4055 -11.15569,-8.78183 -11.72495,-22.20044 l -0.29612,-6.98029 -3,-1.6763 c -5.74089,-3.20779 -9.31999,-7.88822 -10.30402,-13.47467 -0.70681,-4.01263 0.41195,-9.13418 3.25224,-14.88845 1.22166,-2.475 2.20319,-4.725 2.18119,-5 -0.022,-0.275 -1.94542,-1.12104 -4.27425,-1.88008 -15.7196,-5.12353 -24.40911,-16.56943 -26.1069,-34.38823 -0.27383,-2.87391 -0.36069,-5.95654 -0.19302,-6.8503 0.26444,-1.40957 0.0847,-1.80773 -1.35565,-3.0032 -10.21567,-8.47879 -15.33793,-15.99825 -16.2637,-23.87509 -0.34086,-2.90019 0.59399,-8.20002 1.5083,-8.55087 0.33555,-0.12876 2.54454,0.39639 4.90889,1.16701 3.87402,1.26268 4.6742,1.75548 8.09786,4.98725 2.67864,2.5285 3.79906,3.93969 3.79906,4.78496 0,1.99498 2.88891,7.12879 5.2214,9.2788 1.20708,1.11265 3.53784,2.70102 5.17946,3.52971 l 2.98478,1.50671 -0.0178,8.89666 c -0.0256,12.75769 1.43123,18.08836 5.75398,21.05453 6.58545,4.51878 13.2683,6.81382 18.89284,6.48822 4.91006,-0.28424 7.27916,-1.58613 13.68629,-7.52108 2.59769,-2.40625 4.95726,-4.375 5.24349,-4.375 0.28623,0 0.75334,0.43521 1.03801,0.96713 0.62942,1.17607 0.67086,14.51989 0.0534,17.17988 -0.67789,2.92009 -3.46855,7.22304 -6.85498,10.56976 -3.55892,3.51719 -7.67495,9.62328 -9.15692,13.5842 -0.98138,2.62297 -0.99448,2.91992 -0.26729,6.0555 1.34621,5.80476 4.07661,9.65436 7.87064,11.09685 1.36054,0.51728 1.37281,0.56327 1.37557,5.15931 0.004,5.77187 0.58776,7.93128 2.81227,10.39355 2.57534,2.85059 5.15545,3.66201 10.79047,3.39349 5.97145,-0.28455 9.05523,-1.56936 12.22309,-5.09257 l 2.29919,-2.5571 0.79719,1.25 c 1.13783,1.78414 3.90751,4.37973 5.74868,5.38733 1.23432,0.6755 2.82386,0.86267 7.32632,0.86267 6.56578,0 8.53265,-0.69676 11.49679,-4.07272 4.21166,-4.79682 5.63081,-10.88158 5.63888,-24.17728 0.006,-9.33037 -0.20282,-11.31683 -1.96937,-18.76454 -0.23239,-0.97971 -0.0205,-1.01403 6.17153,-1 3.52669,0.008 7.36842,-0.15687 8.53717,-0.36637 2.6006,-0.46617 2.6348,-0.25537 0.85945,5.30386 -2.78795,8.73006 -2.55035,24.11314 0.50705,32.82705 2.31385,6.59475 7.1297,10.09626 14.34025,10.42647 3.2993,0.15109 4.2541,-0.007 6.63885,-1.0987 1.63075,-0.74658 3.8436,-2.37422 5.33825,-3.92647 l 2.5529,-2.6513 0.8191,1.23818 c 4.068,6.14906 11.4618,8.95643 17.93025,6.80795 6.7376,-2.23786 9.63215,-8.19804 7.9142,-16.29613 -0.75045,-3.53749 -0.7454,-3.78594 0.0896,-4.38427 8.127,-5.82369 9.0478,-6.61988 10.04505,-8.6859 3.84745,-7.97073 1.8976,-15.06439 -6.3297,-23.02791 -2.3816,-2.30526 -5.2961,-4.99985 -6.47665,-5.98799 l -2.1465,-1.79662 0.34625,-6.55866 c 0.19045,-3.60726 0.544,-6.55865 0.78575,-6.55865 0.2417,0 1.8007,0.68715 3.46445,1.52701 4.2174,2.12892 12.4835,4.81692 16.9465,5.51071 4.68605,0.72845 9.88295,0.36367 13.6422,-0.95759 4.2915,-1.50835 10.07715,-6.05954 11.65075,-9.1649 1.90285,-3.75507 2.78805,-9.19835 2.6242,-16.13618 l -0.14105,-5.97095 1.98695,-1.41431 c 5.72185,-4.07279 9.4388,-9.13089 11.7317,-15.9646 l 1.3574,-4.04564 5.6989,-2.18378 c 3.13445,-1.20108 5.8677,-2.18738 6.07395,-2.19177 0.6928,-0.0148 0.38485,9.05971 -0.41185,12.13413 -1.53905,5.93953 -5.40965,11.93709 -9.92655,15.38145 l -2.5033,1.90889 -0.0385,6.65877 c -0.0435,7.51912 -0.8342,11.41105 -3.5037,17.24609 -4.33395,9.473 -11.7624,16.19907 -22.65835,20.51584 l -4.6673,1.84908 0.32645,1.52387 c 1.4985,6.9953 1.4111,11.75126 -0.3113,16.93823 -1.8635,5.61188 -5.1873,9.67806 -10.7403,13.1391 l -3.6903,2.30005 -0.008,3.82325 c -0.0225,9.83501 -3.93145,18.15186 -10.28075,21.8728 -4.12925,2.4199 -12.8034,3.39663 -17.96055,2.0224 -3.06695,-0.81726 -5.39935,-1.98683 -7.93155,-3.97725 -1.56875,-1.23313 -2.0852,-1.40963 -2.75,-0.93978 -6.9391,4.9046 -11.0978,6.34508 -18.31845,6.34508 -5.1076,0 -5.7321,-0.11001 -8.75345,-1.54186 -1.78945,-0.84802 -4.5425,-2.59177 -6.11795,-3.875 -1.57565,-1.28323 -3.00923,-2.33314 -3.18593,-2.33314 -0.17669,0 -1.84109,1.43372 -3.69865,3.18605 -4.83396,4.56012 -8.0121,5.96111 -13.99421,6.16898 -3.71102,0.12895 -5.29683,-0.0389 -7.25,-0.76717 z m -6.88538,-70.57781 c -4.2363,-0.76387 -7.15123,-3.10331 -6.08675,-4.88505 0.85305,-1.42783 5.71754,-3.55441 9.47213,-4.14088 3.90123,-0.60937 9.26153,0.0749 10.28944,1.3134 0.77691,0.93612 0.35377,1.04693 -6.49827,1.70162 -6.06314,0.57932 -6.75102,0.75679 -6.22599,1.60631 0.2259,0.36552 2.36585,0.42896 6.71857,0.19917 3.51291,-0.18546 6.50257,-0.15037 6.64369,0.078 0.472,0.76372 -0.43708,1.5627 -3.23606,2.84412 -3.12186,1.42923 -7.47237,1.93328 -11.07676,1.28335 z m 51.38538,-0.50676 c -3.4238,-1.1446 -5.5588,-2.59914 -5.0421,-3.43514 0.25115,-0.40638 2.22105,-0.47446 6.8904,-0.23813 5.47405,0.27705 6.50085,0.21739 6.30625,-0.36644 -0.2734,-0.82014 -2.52355,-1.27533 -8.52955,-1.72546 -4.86245,-0.36442 -5.7622,-1.19066 -2.5,-2.29572 5.8269,-1.97384 18.625,1.13783 18.625,4.52841 0,3.37063 -9.71585,5.54974 -15.75,3.53248 z m -63.90778,-7.09487 c -6.67843,-3.6517 -12.57148,-13.43585 -9.58525,-15.9142 1.89241,-1.57056 9.00297,1.04559 14.32528,5.27063 4.2149,3.34594 7.01255,7.99951 5.40606,8.99238 -0.28144,0.17394 -2.81269,-1.52712 -5.625,-3.78012 -5.3607,-4.29456 -7.12445,-5.38264 -7.73516,-4.77192 -0.37378,0.37377 2.4066,3.16524 7.37185,7.40128 2.34033,1.99663 2.668,2.48 2.19957,3.24483 -0.89268,1.45752 -3.17224,1.29872 -6.35735,-0.44288 z m 79.75778,0.99158 c -1.0604,-1.06038 -0.6685,-1.69497 3.025,-4.89879 4.19145,-3.63573 5.875,-5.36343 5.875,-6.02909 0,-1.14275 -1.65805,-0.18113 -6.94495,4.02788 -3.10885,2.475 -5.8626,4.5 -6.11945,4.5 -1.06905,0 -0.9553,-1.6285 0.25835,-3.69943 2.7866,-4.75499 11.4129,-10.59731 16.49255,-11.16986 4.18515,-0.47173 4.8691,1.59715 2.25645,6.8255 -3.39555,6.79513 -12.25675,13.03001 -14.84295,10.44379 z m -67.6115,-5.92253 c -0.5675,-1.11239 -1.77972,-2.85614 -2.69382,-3.875 -2.00046,-2.22972 -2.36611,-3.28443 -2.36611,-6.82498 0,-3.58539 0.67185,-4.77749 2.69251,-4.77749 1.28684,0 2.16084,0.58931 4.63468,3.125 3.4971,3.58451 5.79309,7.85567 6.13485,11.41244 0.21066,2.19243 0.12919,2.46256 -0.74271,2.46256 -0.72827,0 -1.68563,-1.30703 -3.7346,-5.09867 -1.5154,-2.80426 -3.01583,-5.18551 -3.33429,-5.29166 -1.12241,-0.37414 -0.55676,1.95678 1.4373,5.92277 1.10897,2.20565 1.8832,4.22565 1.72049,4.48891 -0.1627,0.26325 -0.84047,0.47865 -1.50615,0.47865 -0.91091,0 -1.46559,-0.50035 -2.24215,-2.02253 z m 58.28815,1.56565 c -0.1553,-0.2513 0.6189,-2.32064 1.7205,-4.59856 2.0207,-4.17854 2.5061,-6.19565 1.40245,-5.82777 -0.3302,0.11007 -1.84895,2.48906 -3.375,5.28665 -1.9991,3.66483 -3.0387,5.08791 -3.71955,5.09153 -0.8462,0.005 -0.91545,-0.28073 -0.66275,-2.72913 0.49955,-4.84038 5.31105,-12.1807 9.1912,-14.02194 l 1.86645,-0.88569 1.4,1.677 1.40005,1.67702 0.013,-3.23111 c 0.0155,-3.83576 1.48865,-8.52132 3.99285,-12.69848 2.0216,-3.37217 5.1076,-5.7617 6.41255,-4.96531 3.31265,2.02164 3.51565,12.11845 0.38135,18.96466 -0.97945,2.13949 -1.521,2.71352 -3.02965,3.21141 -1.01035,0.33345 -1.9575,0.48577 -2.1048,0.33849 -0.14725,-0.14728 0.3178,-2.71676 1.0335,-5.70996 1.3582,-5.68017 1.6376,-8.62193 0.8189,-8.62193 -0.7615,0 -1.2736,1.30499 -3.25545,8.29618 -2.2621,7.97972 -2.3794,8.20518 -3.6647,7.04202 -0.9363,-0.84734 -0.971,-0.80621 -1.22555,1.452 -0.14405,1.27822 -0.73195,2.91709 -1.30645,3.64192 -0.57445,0.72484 -1.89295,2.59912 -2.92995,4.16507 -1.31385,1.98395 -2.21765,2.85563 -2.981,2.875 -0.6025,0.0153 -1.22255,-0.17779 -1.37785,-0.42907 z M 325.8093,631.70151 c -0.2421,-0.48125 -0.82655,-2.3375 -1.29879,-4.125 -1.75435,-6.6406 -3.37416,-11 -4.08726,-11 -1.002,0 -0.9044,0.97468 0.79412,7.93034 0.82668,3.38539 1.38421,6.34756 1.23895,6.5826 -0.14527,0.23503 -0.99039,0.18461 -1.87806,-0.11206 -4.02121,-1.34393 -6.43798,-5.62512 -6.76137,-11.97742 -0.19534,-3.83708 -0.0775,-4.63825 1.04127,-7.08208 2.0415,-4.45922 3.91033,-4.81293 7.05259,-1.33482 3.62454,4.01193 6.85821,12.46948 5.81585,15.21111 -0.28176,0.74109 -0.51229,2.57028 -0.51229,4.06488 0,2.72215 -0.57989,3.48259 -1.40501,1.84245 z m -16.03588,-3.63533 c -4.06308,-1.92214 -7.55094,-4.68558 -11.18066,-8.85845 -4.58157,-5.26715 -6.12515,-9.8131 -4.04005,-11.8982 1.73158,-1.73158 9.0412,0.46395 14.43078,4.33444 l 2.23082,1.60206 0,3.16524 c 0,1.86538 -0.21433,3.16524 -0.52191,3.16524 -0.28704,0 -1.86812,-1.12034 -3.5135,-2.48964 -3.69428,-3.07441 -4.78953,-3.69813 -5.23323,-2.98021 -0.44,0.71194 0.44131,1.71365 7.47045,8.491 5.7535,5.54739 6.65517,6.97951 4.39368,6.97845 -0.46502,-2.1e-4 -2.28139,-0.67968 -4.03638,-1.50993 z m 104.44089,0.52241 c 0,-1.19948 2.09725,-3.7197 5.046,-6.06367 4.7625,-3.78575 8.454,-7.36957 8.454,-8.20741 0,-0.40754 -0.1475,-0.741 -0.3278,-0.741 -0.4469,0 -3.3433,2.1879 -6.7401,5.09137 -1.54985,1.32475 -3.0686,2.40863 -3.375,2.40863 -0.34755,0 -0.5571,-1.12832 -0.5571,-3 0,-3.52821 0.2868,-3.90179 5.7162,-7.44616 3.95075,-2.57907 9.77295,-4.73426 12.0725,-4.46886 2.2315,0.25756 3.1009,2.23372 2.3001,5.228 -1.30915,4.8946 -7.41565,12.30295 -12.11875,14.70229 -4.70865,2.40219 -10.47005,3.77612 -10.47005,2.49682 z m -28.1092,-4.52229 c -3.34005,-5.29076 -14.8045,-25.72491 -14.60965,-26.04018 0.29365,-0.47514 9.73435,2.85239 10.51165,3.70501 0.6744,0.73975 5.40845,21.9917 5.10295,22.90814 -0.14975,0.44929 -0.4776,0.26238 -1.00495,-0.57297 z m -39.38353,0.13521 c 0.007,-0.36903 14.84891,-20.54373 16.36846,-22.25 0.42859,-0.48125 0.96938,-0.875 1.20176,-0.875 0.49581,0 0.56243,5.83957 0.10473,9.1789 l -0.31779,2.31847 -8.40327,6.00131 c -4.6218,3.30072 -8.5288,6.00132 -8.68221,6.00132 -0.15342,0 -0.27567,-0.16875 -0.27167,-0.375 z m 68.94388,-13.75 c -0.3686,-0.89375 -1.53075,-2.56086 -2.5826,-3.70468 -2.2052,-2.39815 -2.7433,-3.94915 -3.1778,-9.1594 -0.58995,-7.07487 1.4626,-12.49345 4.44865,-11.744 2.0599,0.51701 5.0953,4.3205 6.896,8.64107 1.2339,2.96053 1.65755,4.82243 1.8465,8.11524 0.2318,4.0393 0.1752,4.35409 -1.03355,5.75 -1.67145,1.9302 -2.14835,1.42846 -3.4053,-3.58245 -1.65725,-6.60662 -2.97045,-10.19078 -3.7338,-10.19078 -1.0112,0 -0.8908,1.35509 0.799,8.99263 0.82045,3.70845 1.49175,7.1397 1.49175,7.625 0,1.41418 -0.82185,1.02012 -1.54885,-0.74263 z m -108.24373,-2.12213 c -1.28255,-1.28254 -1.31467,-1.46188 -1.10355,-6.16193 0.18241,-4.06105 0.46314,-5.37297 1.74252,-8.14337 2.43298,-5.2684 6.61794,-9.14385 8.92013,-8.26042 0.43147,0.16557 1.24946,1.35219 1.81776,2.63692 0.90975,2.05664 1.0038,3.02866 0.78676,8.13091 -0.25577,6.01232 -0.97749,9.04502 -2.15256,9.04502 -0.37603,0 -1.47902,0.69831 -2.45108,1.55179 -1.08155,0.94963 -1.7674,1.28485 -1.7674,0.86388 0,-0.37836 0.55755,-3.37662 1.23899,-6.6628 0.80742,-3.89363 1.06867,-6.14521 0.75,-6.46388 -0.9999,-0.9999 -1.1771,-0.54157 -4.7108,12.1842 -0.33953,1.22276 -0.87213,2.30813 -1.18356,2.41193 -0.31142,0.10381 -1.16067,-0.4057 -1.88721,-1.13225 z m -8.48168,-3.55043 c -1.57404,-0.55879 -2.37557,-1.30063 -3.60382,-3.33553 -2.80766,-4.65152 -3.26637,-6.2506 -3.51511,-12.25384 -0.25908,-6.2527 0.39075,-8.99701 2.62809,-11.09889 1.66718,-1.56624 3.2998,-1.05855 6.21262,1.93194 2.37274,2.436 6.0783,8.98086 6.11719,10.80437 0.0272,1.27828 -2.2504,7.28416 -2.80895,7.40677 -0.23233,0.051 -0.73492,-0.91976 -1.11685,-2.15726 -1.69182,-5.48161 -3.25457,-9 -3.99751,-9 -1.06512,0 -0.60341,3.16813 1.61266,11.0656 0.95445,3.40143 1.73775,6.46565 1.74066,6.8094 0.007,0.7787 -0.69347,0.74174 -3.26897,-0.17256 z m 128.77426,0.0211 c 0,-0.46415 0.7657,-3.79806 1.7016,-7.4087 2.1799,-8.41011 2.3965,-9.69516 1.70615,-10.12181 -0.89855,-0.55534 -1.71515,1.02807 -3.65965,7.09623 -1.76165,5.49739 -2.7481,7.38252 -2.7481,5.25169 0,-0.55995 -0.5385,-2.44871 -1.19665,-4.19726 -1.19165,-3.16593 -1.19285,-3.18989 -0.2887,-5.75726 1.9691,-5.5915 6.7146,-11.62293 9.7429,-12.38297 2.80985,-0.70524 4.4698,2.76865 4.44215,9.29657 -0.0335,7.89563 -2.96585,16.3199 -6.2012,17.81485 -2.5922,1.19777 -3.4985,1.30364 -3.4985,0.40865 z m -85.61484,-14.59851 c -4.36447,-4.33125 -7.63807,-7.93784 -7.27466,-8.01464 0.6756,-0.14277 24.30376,9.63048 25.05302,10.36261 0.22744,0.22225 -0.22256,0.85324 -1,1.40222 -1.86655,1.31805 -7.47283,4.12481 -8.23898,4.12481 -0.33219,0 -4.17491,-3.54375 -8.53938,-7.875 z m 27.92474,-0.25 c 1.27215,-2.15528 6.2451,-9.34998 6.62495,-9.58473 0.44055,-0.27229 16.0199,-1.7715 18.54015,-1.78413 2.18595,-0.0109 0.49205,0.91865 -11.9092,6.53568 -11.71245,5.30505 -14.03405,6.15152 -13.2559,4.83318 z m 46.8762,-8.5 c -4.3105,-6.65239 -6.00675,-8.875 -6.77325,-8.875 -0.89665,0 -0.31255,1.85327 1.83715,5.82915 1.2375,2.28874 2.25,4.27598 2.25,4.4161 0,0.14011 -0.49175,0.25475 -1.09275,0.25475 -0.60105,0 -1.58765,0.46487 -2.19245,1.03306 l -1.09965,1.03305 -1.0842,-1.52265 c -4.3421,-6.09789 -6.68715,-17.77966 -3.9421,-19.63713 0.898,-0.60763 3.8858,-0.20254 6.0377,0.8186 4.1872,1.98695 9.59885,8.18498 11.1045,12.71809 1.8251,5.49486 1.8057,10.55698 -0.0405,10.55698 -0.3914,0 -2.64335,-2.98125 -5.0044,-6.625 z m -109.66851,5.15787 c -1.8138,-3.38913 1.75364,-12.3041 7.03843,-17.58889 3.93629,-3.93629 8.87517,-6.08576 10.78111,-4.6921 2.48373,1.81615 -0.35109,14.45914 -4.47385,19.95288 -0.6749,0.89932 -0.78528,0.90658 -1.90114,0.125 -0.65155,-0.45637 -1.71583,-0.82976 -2.36506,-0.82976 -1.38985,0 -1.49643,0.36473 1.6506,-5.64868 1.37373,-2.62494 2.32909,-4.94121 2.12304,-5.14727 -0.6819,-0.6819 -2.87842,1.94621 -7.02487,8.40516 -2.25272,3.50906 -4.36918,6.38251 -4.70326,6.38546 -0.33407,0.003 -0.84032,-0.42988 -1.125,-0.9618 z m 53.6248,-4.37628 c -1.37194,-2.14863 -2.7276,-4.35659 -3.01257,-4.90659 -0.41554,-0.80199 0.10672,-2.58407 2.63754,-9 1.73562,-4.4 3.32822,-7.94327 3.53911,-7.87394 0.50435,0.16581 0.23658,24.7527 -0.27532,25.28053 -0.21688,0.22362 -1.51682,-1.35138 -2.88876,-3.5 z m -56.13911,-3.53159 c 0.002,-0.48125 1.0143,-4.57374 2.25,-9.09442 2.27416,-8.31982 2.64329,-10.53058 1.75825,-10.53058 -0.95053,0 -2.13257,2.55102 -4.55478,9.82988 -1.34776,4.05011 -2.67157,7.58494 -2.9418,7.85517 -0.32176,0.32176 -0.86169,0.15892 -1.56454,-0.47187 -0.99938,-0.89691 -1.05577,-1.31055 -0.81959,-6.0116 0.21631,-4.30543 0.52047,-5.70355 2.0667,-9.5 2.43067,-5.96796 4.83932,-9.38816 7.52826,-10.68986 1.17439,-0.56851 2.51235,-0.88896 2.97323,-0.7121 2.17267,0.83373 3.43554,7.00565 2.72781,13.33143 -0.4183,3.7388 -0.55358,4.04911 -3.0584,7.01539 -2.40718,2.85066 -3.51803,4.79357 -4.84757,8.47856 -0.55335,1.53368 -1.52265,1.85304 -1.51757,0.5 z m 121.21887,-8.75 c -2.5207,-7.60781 -3.94245,-10.875 -4.7323,-10.875 -0.885,0 -0.50795,3.1617 1.03675,8.69424 1.78055,6.3772 1.77315,7.96979 -0.0235,5.05576 -0.6782,-1.1 -2.402,-3.2735 -3.8307,-4.82999 -2.96325,-3.22834 -3.5049,-5.18423 -3.024,-10.92035 0.333,-3.97189 1.3603,-6.70156 2.8152,-7.48019 1.51105,-0.80867 4.938,0.8286 6.87295,3.28365 3.9362,4.99417 6.16345,11.42203 6.16345,17.78763 0,3.74259 -0.1512,4.56045 -1,5.40925 -0.55,0.55 -1.20635,1 -1.45855,1 -0.2522,0 -1.52085,-3.20625 -2.8193,-7.125 z m -98.63962,-4.71133 -0.62487,-2.33633 2.27117,-2.30584 c 1.24915,-1.26822 2.27117,-2.46687 2.27117,-2.66368 0,-0.87851 -1.7869,-0.18642 -4.88536,1.89218 -1.84468,1.2375 -3.71199,2.25 -4.14956,2.25 -0.43759,0 -1.88527,0.55165 -3.21707,1.2259 -1.33181,0.67425 -2.58402,1.12545 -2.78269,1.00267 -0.76385,-0.4721 0.51631,-3.85315 2.26857,-5.99155 2.31843,-2.82935 4.34102,-4.37136 7.78721,-5.93691 7.19459,-3.2684 12.4789,-2.77899 12.4789,1.15575 0,2.37585 -2.91413,7.38998 -6.28058,10.80652 -1.75458,1.78069 -3.48757,3.23762 -3.85108,3.23762 -0.36446,0 -0.94123,-1.04801 -1.28581,-2.33633 z m 70.02672,-1.45836 c -4.2456,-4.27283 -6.10925,-7.44193 -6.10925,-10.38868 0,-1.685 0.1834,-1.94459 1.875,-2.65431 3.2917,-1.38102 9.8774,0.50168 15.0243,4.29508 2.2034,1.62396 6.2944,7.32469 5.8141,8.10185 -0.1473,0.23832 -1.13495,-0.009 -2.19475,-0.54972 -1.0598,-0.54068 -2.9038,-1.12869 -4.09775,-1.3067 -1.194,-0.17801 -3.2031,-0.97147 -4.46465,-1.76324 -1.2616,-0.79177 -2.55535,-1.43959 -2.875,-1.43959 -1.0504,0 -0.60855,1.28682 0.95505,2.78145 1.4076,1.3455 1.5089,1.65708 1.2089,3.71855 -0.1801,1.2375 -0.5251,2.45488 -0.76665,2.70531 -0.2589,0.26839 -2.0525,-1.16837 -4.3693,-3.5 z m -82.09467,-12.90323 c -0.57862,-2.06666 -0.52243,-2.39267 0.94103,-5.45906 1.8873,-3.95448 5.46761,-7.37117 9.92015,-9.46681 3.49445,-1.64471 8.08495,-2.27781 10.2925,-1.4195 1.33962,0.52086 1.39862,0.66904 1.06394,2.67236 -0.45524,2.72496 -1.7736,6.07093 -3.55235,9.01578 -1.28924,2.13442 -1.64197,2.37973 -4.16912,2.89941 -1.5184,0.31224 -3.16627,0.78174 -3.66193,1.04334 -0.49566,0.26159 -1.2483,0.40515 -1.67254,0.31901 -0.54646,-0.11095 0.11712,-1.16215 2.27621,-3.60579 1.67614,-1.89704 3.04753,-3.75329 3.04753,-4.125 0,-1.61965 -1.94217,-0.31943 -7.20601,4.82418 -3.09571,3.025 -5.86154,5.5 -6.1463,5.5 -0.28475,0 -0.79465,-0.98906 -1.13311,-2.19792 z m 92.08312,-3.3221 c -3.309,-3.20812 -6.06085,-5.47998 -6.63785,-5.47998 -0.9145,0 -0.9342,0.0991 -0.27305,1.375 0.39185,0.75625 2.11345,2.90291 3.8258,4.77037 1.71235,1.86745 3.02875,3.47879 2.92535,3.58075 -0.10335,0.10195 -1.5061,-0.35161 -3.11725,-1.00791 -1.6111,-0.65629 -3.716,-1.34085 -4.67755,-1.52124 -1.3725,-0.25749 -2.0631,-0.82434 -3.2132,-2.63748 -2.67875,-4.22301 -3.78655,-10.22613 -2.1394,-11.59315 1.22305,-1.01505 5.2258,-0.733 7.7383,0.54528 5.32995,2.71177 10.37585,7.74483 12.2418,12.21074 0.8278,1.9812 0.54355,5.2926 -0.4513,5.25762 -0.31315,-0.011 -3.1129,-2.48601 -6.22165,-5.5 z m -68.72173,2.62332 c -0.75571,-0.46931 -1.31068,-1.04464 -1.23326,-1.2785 0.0774,-0.23385 2.94203,-1.80885 6.36582,-3.5 3.42378,-1.69114 6.30376,-3.35605 6.39993,-3.6998 0.32782,-1.17163 -2.41484,-0.64837 -7.47279,1.42569 -2.75052,1.12788 -5.13159,1.92005 -5.29125,1.76039 -0.15967,-0.15967 0.2755,-1.58873 0.96703,-3.17569 0.69154,-1.58697 1.38779,-3.26738 1.54722,-3.73425 0.98533,-2.88532 12.88231,-5.02725 16.80389,-3.02537 2.71199,1.38442 2.98401,2.25046 1.55372,4.94658 -1.56569,2.95136 -6.24982,6.86491 -10.76628,8.99514 -4.36548,2.05902 -7.01159,2.44243 -8.87403,1.28581 z m 43.93613,-0.57063 c -1.5342,-0.80703 -3.7152,-2.21131 -4.8467,-3.12061 -3.63375,-2.92015 -6.8646,-8.29002 -6.1337,-10.19464 0.9053,-2.35921 7.25745,-2.92736 12.99065,-1.16192 5.58995,1.72135 5.86325,1.94968 7.4103,6.19153 0.76245,2.09041 1.298,3.88899 1.19015,3.99684 -0.10785,0.10784 -2.66585,-0.79999 -5.68445,-2.0174 -9.326,-3.76123 -10.66555,-2.64236 -2.1233,1.77353 2.92585,1.5125 5.3443,2.93334 5.37435,3.15742 0.0829,0.61893 -3.4066,2.84258 -4.46085,2.84258 -0.50985,0 -2.18225,-0.6603 -3.71645,-1.46733 z m 23.6508,-14.85878 c -1.63215,-1.55677 -2.9629,-3.26273 -2.9629,-3.7982 0,-0.53465 1.82575,-2.91915 4.05725,-5.29889 4.79485,-5.11336 11.4606,-13.29734 13.70075,-16.82123 2.03225,-3.19685 3.5841,-7.38098 4.21645,-11.36855 1.40475,-8.85796 -4.7372,-19.60673 -13.62305,-23.84109 -4.66135,-2.22128 -8.89445,-2.8217 -14.32315,-2.03158 -8.7971,1.28037 -8.86585,1.27688 -9.9491,-0.50443 -0.52975,-0.87105 -1.1077,-2.48777 -1.2844,-3.59271 -0.74105,-4.63434 -3.4616,-7.65317 -9.37115,-10.39869 -6.1047,-2.83616 -12.95909,-2.90499 -19.007,-0.19085 -4.42399,1.98537 -8.03462,6.38728 -10.18931,12.42233 -0.49092,1.375 -1.0923,2.725 -1.33642,3 -0.26433,0.29778 -4.02257,0.5 -9.29235,0.5 -8.75032,0 -8.88128,0.0161 -11.79968,1.44903 -5.82386,2.85955 -10.85107,9.51002 -12.2463,16.20058 -1.41195,6.77072 -0.0221,12.53111 5.11485,21.19963 2.73701,4.61861 9.03309,12.90076 9.80715,12.90076 0.71335,0 1.64898,2.93977 1.33447,4.1929 -0.20017,0.79754 -1.5328,1.99832 -3.89512,3.50971 -1.97497,1.26356 -3.84149,2.29739 -4.14783,2.29739 -0.30634,0 -4.81208,-3.74396 -10.01276,-8.31991 -9.97573,-8.77739 -12.49634,-10.38862 -17.16447,-10.97186 l -2.71756,-0.33954 0.29766,-2.80935 c 0.30754,-2.90247 1.60282,-7.33779 2.46315,-8.43434 0.2697,-0.34375 1.12174,-0.625 1.89343,-0.625 1.28206,0 2.9716,-1.08457 2.9765,-1.91072 0.008,-1.40108 1.67146,-10.03669 2.51443,-13.05565 2.19406,-7.85767 6.61214,-15.38163 11.58817,-19.73454 4.87786,-4.26703 12.76361,-7.2683 19.15536,-7.29041 l 2.50997,-0.009 2.19102,-3.625 c 5.88332,-9.73381 10.97185,-15.07627 17.49042,-18.36322 7.65224,-3.85861 16.11887,-4.3074 23.65572,-1.25392 6.9976,2.83502 14.70205,9.79707 19.58885,17.70127 l 2.6528,4.29087 5.45065,0.31411 c 6.05835,0.34913 10.1225,1.56709 15.0069,4.4973 3.47625,2.08546 9.65235,8.68433 11.66885,12.46765 1.7581,3.2985 3.6513,10.71628 4.82685,18.91197 l 0.8332,5.80897 2.38435,2.30074 c 3.6953,3.56571 5.4784,8.10279 4.06165,10.335 -0.2219,0.34965 -2.29975,0.98569 -4.61735,1.4134 -4.6697,0.8618 -7.52515,2.31815 -13.8816,7.07996 -4.52805,3.39215 -11.21855,9.69665 -13.33225,12.56308 -0.825,1.1188 -1.91045,2.0395 -2.4121,2.046 -0.5017,0.007 -2.24545,-1.25993 -3.875,-2.81429 z"
         id="path4934"
         inkscape:connector-curvature="0" />
    </g>
  </g>
</svg>
